<?xml version="1.0" standalone="no"?>
<!DOCTYPE svg PUBLIC "-//W3C//DTD SVG 20010904//EN"
 "http://www.w3.org/TR/2001/REC-SVG-20010904/DTD/svg10.dtd">
<svg version="1.0" xmlns="http://www.w3.org/2000/svg"
 width="569.000000pt" height="535.000000pt" viewBox="0 0 569.000000 535.000000"
 preserveAspectRatio="xMidYMid meet">

<g transform="translate(0.000000,535.000000) scale(0.100000,-0.100000)"
fill="#000000" stroke="none">
<path d="M2329 3956 c-25 -7 -97 -39 -160 -70 -111 -55 -117 -57 -229 -66 -63
-4 -236 -12 -384 -15 -156 -5 -262 -11 -255 -16 8 -5 122 -9 254 -9 132 0 272
-5 310 -10 l70 -10 108 -112 c64 -67 118 -134 133 -164 15 -31 38 -119 60
-230 43 -225 127 -533 162 -599 32 -59 147 -178 216 -223 65 -42 140 -69 258
-93 120 -24 206 -56 223 -83 10 -17 10 -43 -1 -141 -7 -66 -17 -208 -20 -316
-7 -203 -1 -266 32 -317 15 -23 16 -23 36 -5 32 29 37 45 59 195 11 79 24 147
28 151 5 5 11 -67 14 -160 5 -172 18 -237 49 -257 21 -13 46 8 65 53 8 19 21
111 29 205 16 196 34 242 34 90 1 -182 26 -278 91 -340 28 -27 29 -27 49 -9
11 10 27 44 36 74 8 31 17 62 20 69 3 10 15 5 44 -18 77 -61 120 -37 120 68 0
28 3 52 6 52 4 0 22 -13 41 -30 29 -26 53 -38 53 -26 0 19 -37 97 -79 167 -70
117 -68 134 7 78 24 -17 46 -29 49 -25 10 9 -33 158 -78 270 -30 76 -42 124
-50 196 -17 162 -27 201 -65 255 -19 28 -65 93 -102 145 -37 52 -92 130 -122
174 l-54 78 47 44 c26 24 47 52 47 64 0 25 12 26 35 0 31 -34 75 -26 136 24
35 28 68 45 92 49 52 8 111 40 115 61 2 10 -4 26 -14 37 -25 28 -8 36 20 9 28
-26 58 -23 114 12 28 17 32 25 32 64 0 24 2 44 3 44 2 0 18 -7 35 -15 29 -15
34 -15 82 10 61 31 69 46 41 81 -30 38 -26 46 15 29 52 -22 101 -19 149 10 53
30 59 47 33 80 l-20 26 64 -7 c70 -7 105 4 143 46 l20 22 -35 29 c-19 15 -33
29 -30 30 3 0 28 2 57 4 61 4 77 12 122 59 28 29 32 38 22 50 -33 40 -129 31
-549 -50 -258 -49 -639 -126 -701 -141 -16 -4 -22 -2 -17 5 6 11 42 22 199 66
68 20 74 36 12 36 -25 0 -45 4 -45 8 0 4 23 29 50 55 54 51 62 72 30 82 -28 9
-123 -4 -200 -27 -156 -47 -434 -209 -574 -334 l-96 -86 0 109 c0 179 -41 312
-113 367 -70 54 -144 79 -241 82 -56 2 -109 -2 -137 -10z"/>
</g>
</svg>
