<?xml version="1.0" standalone="no"?>
<!DOCTYPE svg PUBLIC "-//W3C//DTD SVG 20010904//EN"
 "http://www.w3.org/TR/2001/REC-SVG-20010904/DTD/svg10.dtd">
<svg version="1.0" xmlns="http://www.w3.org/2000/svg"
 width="1024.000000pt" height="1024.000000pt" viewBox="0 0 1024.000000 1024.000000"
 preserveAspectRatio="xMidYMid meet">

<g transform="translate(0.000000,1024.000000) scale(0.100000,-0.100000)"
fill="#000000" stroke="none">
<path d="M7095 8665 c-665 -106 -1131 -421 -1389 -940 -75 -150 -143 -343
-181 -512 -36 -159 -42 -293 -51 -1060 l-7 -641 -662 -4 c-365 -1 -665 -5
-667 -8 -2 -3 -2 -346 0 -762 l4 -758 661 -2 662 -3 3 -1983 2 -1982 793 2
792 3 3 1983 2 1982 659 0 659 0 6 33 c16 92 186 1419 186 1458 l0 26 -756 6
c-416 3 -758 8 -760 9 -1 2 1 285 5 628 9 677 9 677 67 793 84 167 218 260
437 303 66 13 178 17 580 21 l497 5 0 683 0 683 -52 6 c-220 27 -465 38 -913
42 -391 3 -508 0 -580 -11z"/>
</g>
</svg>
