<svg xmlns="http://www.w3.org/2000/svg" width="11.697" height="22.512" viewBox="0 0 11.697 22.512">
  <g id="F_icon_reversed.svg" transform="translate(-413.65 867.71)">
    <path id="Trazado_239" data-name="Trazado 239" d="M421.334-867.678a4.541,4.541,0,0,0-3.608,2.442,6.219,6.219,0,0,0-.47,1.33,14.211,14.211,0,0,0-.132,2.753l-.018,1.665-1.719.01c-.948,0-1.727.013-1.732.021s-.005.9,0,1.979l.01,1.969,1.717.005,1.719.008.008,5.151.005,5.148,2.06-.005,2.057-.008.008-5.151.005-5.148h3.423l.016-.086c.042-.239.483-3.686.483-3.787v-.068l-1.964-.016c-1.081-.008-1.969-.021-1.974-.023s0-.74.013-1.631c.023-1.758.023-1.758.174-2.06a1.452,1.452,0,0,1,1.135-.787,11.21,11.21,0,0,1,1.506-.055l1.291-.013v-3.548l-.135-.016a20.873,20.873,0,0,0-2.371-.109A12.1,12.1,0,0,0,421.334-867.678Z" fill="#2e66ec"/>
  </g>
</svg>
