<svg xmlns="http://www.w3.org/2000/svg" width="55" height="55" viewBox="0 0 55 55">
  <g id="Group_456" data-name="Group 456" transform="translate(-52 -518)">
    <circle id="Ellipse_71" data-name="Ellipse 71" cx="27.5" cy="27.5" r="27.5" transform="translate(52 518)" fill="#e4e9fc"/>
    <g id="Screenshot-at-Oct-30-00-33-53" transform="translate(-19.199 1106.871)">
      <path id="Path_112" data-name="Path 112" d="M92.68-573.644l-.5.075a6.092,6.092,0,0,0-4.277,3.12,6,6,0,0,0-.694,3.015c-.045,1.363.05,1.772.519,2.236a1.774,1.774,0,0,0,1.567.469l.19-.05.359.374a4.739,4.739,0,0,0,1.178.908.791.791,0,0,1,.21.13,2.914,2.914,0,0,1-.339.24,4.57,4.57,0,0,0-1.847,2.381c-.23.714-.235.809-.235,3.329v2.411l.125.12c.11.1,4.357,2.875,4.627,3.02a.489.489,0,0,0,.714-.419.431.431,0,0,0-.16-.344c-.09-.085-1.1-.764-2.251-1.5l-2.081-1.348.015-2.2a10.4,10.4,0,0,1,.115-2.546,3.784,3.784,0,0,1,1.048-1.717l.24-.21.17.329a2.113,2.113,0,0,0,1.982,1.208,2.174,2.174,0,0,0,1.747-1.462c.07-.165.15-.289.185-.284s.125.025.2.045a.5.5,0,0,0,.584-.494c0-.17-.165-.359-.449-.514l-.25-.135.334-.2a5.676,5.676,0,0,0,.809-.664l.464-.459.185.05a1.768,1.768,0,0,0,1.562-.469c.414-.414.539-.833.539-1.837a6.814,6.814,0,0,0-.719-3.419,6.121,6.121,0,0,0-4.143-3.1A9.694,9.694,0,0,0,92.68-573.644Zm1.647,1.088a5.514,5.514,0,0,1,1.972.913,5.4,5.4,0,0,1,1.6,2.131,5.32,5.32,0,0,1,.359,2.136c.035,1.113-.01,1.343-.289,1.542a.76.76,0,0,1-1.058-.2c-.1-.165-.11-.26-.14-1.253a3.487,3.487,0,0,0-.409-2.021,3.85,3.85,0,0,0-1.532-1.512,3.544,3.544,0,0,0-1.183-.359.512.512,0,0,0-.265.135c-.135.12-.165.195-.225.589-.045.245-.095.514-.115.6l-.04.15-1.323.025c-.724.015-1.348.045-1.383.065a3.776,3.776,0,0,0-.484.983,5.518,5.518,0,0,0-.12,1.348c-.035,1.208-.065,1.323-.414,1.5a.691.691,0,0,1-.973-.3c-.1-.2-.115-.289-.115-.973a5.942,5.942,0,0,1,.474-2.7,5.086,5.086,0,0,1,3.793-2.865A7.854,7.854,0,0,1,94.327-572.556Zm.155,2.685a2.757,2.757,0,0,1,1.238,1.637,6.839,6.839,0,0,1,.055,1,3.317,3.317,0,0,0,.23,1.622l.14.28-.275.275a3.689,3.689,0,0,1-4.687.494,4.735,4.735,0,0,1-.594-.494l-.275-.275.14-.284a3.605,3.605,0,0,0,.23-1.692,3.865,3.865,0,0,1,.09-1.073l.09-.275,1.318-.025a7.44,7.44,0,0,0,1.427-.085c.14-.08.25-.319.384-.839a1.229,1.229,0,0,1,.155-.424A1.96,1.96,0,0,1,94.482-569.871Zm-1.787,6.883a4.794,4.794,0,0,0,1.452-.055l.19-.04-.025.195a2.746,2.746,0,0,1-.424.928,1.029,1.029,0,0,1-.669.364,1.335,1.335,0,0,1-1.123-1.238c-.03-.245-.02-.275.055-.245A3.825,3.825,0,0,0,92.695-562.988Z" transform="translate(0 -0.203)" fill="#7892ed"/>
      <path id="Path_113" data-name="Path 113" d="M361.492-573.842a6.444,6.444,0,0,0-1.408.389,5.4,5.4,0,0,0-2.241,1.9A5.1,5.1,0,0,0,357-568.7c0,.589.07.764.369.908a.478.478,0,0,1,.3.339,4.858,4.858,0,0,0,1.972,2.321l.309.18-.17.09a3.94,3.94,0,0,0-1.173.983.469.469,0,0,0,.314.679c.2.055.329-.005.684-.319a2.382,2.382,0,0,1,.344-.275c.025,0,.09.1.15.235a2.672,2.672,0,0,0,1.113,1.058,2,2,0,0,0,2.58-1.068c.085-.165.16-.309.17-.319.045-.05.594.429.844.729a3.806,3.806,0,0,1,.734,1.4,13.607,13.607,0,0,1,.13,3.214,14.81,14.81,0,0,1-.055,2.88c-.035.03-1.043.689-2.236,1.462s-2.226,1.467-2.3,1.547a.434.434,0,0,0,.005.649c.3.294.265.314,2.975-1.448a15.836,15.836,0,0,0,2.536-1.757c.085-.16.09-.364.07-3.214l-.015-3.045-.13-.474a6.818,6.818,0,0,0-.26-.769,4.919,4.919,0,0,0-1.787-2.036l-.344-.2.284-.17a4.7,4.7,0,0,0,2.291-3.484.712.712,0,0,1,.2-.489.673.673,0,0,0,.19-.809,5.293,5.293,0,0,0-2.111-3.09A5.417,5.417,0,0,0,361.492-573.842Zm1.647,1.088a5.715,5.715,0,0,1,.849.334,2.779,2.779,0,0,1,1.023.759,3.443,3.443,0,0,1,.734.953c.289.559.414.958.329,1.058a.921.921,0,0,1-.968.15.935.935,0,0,1-.469-.878c0-.309-.08-.489-.255-.584-.21-.1-.329-.085-.714.125a6.708,6.708,0,0,1-1.552.584,10.05,10.05,0,0,1-2.346.05c-.439-.04-.459-.04-.594.08-.125.1-.145.165-.18.519-.055.639-.275.913-.764.958l-.25.025.03-.444a3.988,3.988,0,0,1,1.168-2.565,4.069,4.069,0,0,1,2.061-1.153A4.944,4.944,0,0,1,363.139-572.754Zm.684,3.259a1.794,1.794,0,0,0,1.5,1.048c.364.025.364.025.334.155a4.379,4.379,0,0,1-1.068,1.817,3.606,3.606,0,0,1-2.546.993,3.632,3.632,0,0,1-2.351-.833,4.2,4.2,0,0,1-.938-1.158l-.1-.21.265-.12a1.826,1.826,0,0,0,.988-1.138l.065-.235.574.025a7.11,7.11,0,0,0,2.825-.454c.165-.07.309-.125.324-.13A.9.9,0,0,1,363.823-569.495Zm-1.782,4.976c.369,0,.754-.01.848-.025.17-.025.175-.02.16.125a1.391,1.391,0,0,1-.664.973,1.089,1.089,0,0,1-1.462-.754c-.125-.409-.12-.414.185-.364A7.841,7.841,0,0,0,362.041-564.518Z" transform="translate(-256.334 0)" fill="#7892ed"/>
      <path id="Path_114" data-name="Path 114" d="M254.485-371.687a3.811,3.811,0,0,0-3.04,2.97,4.414,4.414,0,0,0,0,1.557,4.069,4.069,0,0,0,.938,1.772,4.678,4.678,0,0,0,.6.539l.24.165-.359.24a4.156,4.156,0,0,0-1.822,2.74,14.92,14.92,0,0,0-.02,2.785c.06.135-.03.07,2.191,1.482.918.589,1.732,1.088,1.807,1.118a.386.386,0,0,0,.28,0c.3-.115,3.878-2.421,3.963-2.551s.09-.28.09-1.2a6.485,6.485,0,0,0-.235-2.226,4.33,4.33,0,0,0-1.8-2.236.76.76,0,0,1-.215-.145,1.454,1.454,0,0,1,.25-.195,3.893,3.893,0,0,0,1.527-2.381,3.74,3.74,0,0,0-1.058-3.389A3.76,3.76,0,0,0,254.485-371.687Zm1.328,1a3.188,3.188,0,0,1,1.253.669l.275.245-.2.055a8.49,8.49,0,0,1-3.943,0l-.2-.055.27-.245A2.863,2.863,0,0,1,255.812-370.689Zm-2.585,1.991a9.2,9.2,0,0,0,3.888,0c.314-.07.609-.13.649-.135.175-.015.26,1.013.125,1.542a2.888,2.888,0,0,1-1.922,2.026,3.311,3.311,0,0,1-1.547.015,2.931,2.931,0,0,1-2-2.1,3.922,3.922,0,0,1,.045-1.383c.035-.085.085-.13.125-.115S252.917-368.768,253.227-368.7Zm2.181,4.507.619-.025-.035.13a.888.888,0,0,1-1.188.529,1.055,1.055,0,0,1-.464-.429c-.13-.25-.1-.28.195-.23A4.888,4.888,0,0,0,255.408-364.191Zm-1.517,1.2a2.561,2.561,0,0,0,.519.349,2.183,2.183,0,0,0,1.457.025,2.126,2.126,0,0,0,.873-.754.916.916,0,0,1,.19-.26,3.766,3.766,0,0,1,.449.409,3.052,3.052,0,0,1,.883,1.517,4.771,4.771,0,0,1,.1,1.348v.958l-1.6,1.008c-1.507.953-1.607,1-1.712.938-.06-.04-.779-.494-1.592-1.013l-1.487-.943v-.978a5.022,5.022,0,0,1,.095-1.358,3.112,3.112,0,0,1,1.038-1.647l.279-.235.135.21A2.55,2.55,0,0,0,253.891-362.988Z" transform="translate(-155.601 -192.032)" fill="#7892ed"/>
    </g>
  </g>
</svg>
