<svg xmlns="http://www.w3.org/2000/svg" width="18.955" height="27.348" viewBox="0 0 18.955 27.348">
  <g id="Screenshot-at-Nov-17-01-27-36" transform="translate(-56.16 286.903)">
    <path id="Trazado_177" data-name="Trazado 177" d="M62.87-286.742a6.358,6.358,0,0,0-4.388,3.97,9.937,9.937,0,0,0-.311,3.047c-.086,2.747-.172,3.154-1.009,4.592a6.3,6.3,0,0,0-.987,3.09,6.31,6.31,0,0,0,1.684,4.8l.654.708-.483.354a4.053,4.053,0,0,0-1.352,1.942,6.52,6.52,0,0,0-.193,2.564c.032,1.717.054,1.953.215,2.06a.306.306,0,0,0,.376,0c.172-.107.2-.365.247-2.038.054-1.813.075-1.953.354-2.564.322-.687,1.18-1.663,1.47-1.663a.428.428,0,0,0,.268-.1,4.13,4.13,0,0,1,1.76-.44c.89-.1.912-.1,1.287.2a3.563,3.563,0,0,0,.547.354c.086.032.7.483,1.341.987a8.516,8.516,0,0,0,1.33.923,15.063,15.063,0,0,0,2.275-1.674.417.417,0,0,0,.043-.365c-.086-.257-.6-.3-.8-.054a.442.442,0,0,1-.247.161,3.1,3.1,0,0,0-.687.429l-.569.44-.569-.44a4.052,4.052,0,0,0-.654-.429,8.716,8.716,0,0,1-1.459-1.169c0-.054.1-.172.225-.29a2.875,2.875,0,0,0,.687-1.309c.054-.279.118-.343.247-.29a6.5,6.5,0,0,0,1.2.129,5.884,5.884,0,0,0,6.03-4.1,8.624,8.624,0,0,0,.279-2.983,8.613,8.613,0,0,0-.086-2.489.848.848,0,0,0-.579-.161,1.724,1.724,0,0,1-1.631-1.5c-.172-1.009-.365-1.062-1.427-.376a15.331,15.331,0,0,1-5.268,2.071l-.912.182v.375c0,.354.021.376.408.408a13.447,13.447,0,0,0,3.508-.858,17.407,17.407,0,0,0,1.792-.848l1-.526.161.408a2.929,2.929,0,0,0,1.91,1.566c.161.054.182.236.182,1.856,0,2.575-.257,3.422-1.405,4.56a5.172,5.172,0,0,1-8.336-1.491l-.4-.837-.054-2.36a22.977,22.977,0,0,0-.139-2.5.548.548,0,0,0-.7,0,20.276,20.276,0,0,0,.032,4.967,6.554,6.554,0,0,0,2.725,3.755c.612.365.687.633.376,1.309-.311.644-.762.89-1.942,1.051-.579.086-1.159.193-1.3.225-.193.054-.365-.054-.912-.612a5.191,5.191,0,0,1-1.545-4.27,4.836,4.836,0,0,1,.848-2.725c.88-1.459.966-1.856,1.051-4.635.064-2.221.1-2.532.322-3.111a5.132,5.132,0,0,1,2.081-2.65c1.127-.719,1.7-.837,4.249-.837,2.478,0,3.111.118,4.1.74a5.792,5.792,0,0,1,2.124,2.747c.225.579.257.9.322,3.111.086,2.747.182,3.219,1,4.549a5.091,5.091,0,0,1,.912,2.811,5.031,5.031,0,0,1-.579,2.918c-.408.815-.44,1.051-.2,1.255.3.247.644-.032,1.051-.848a6.358,6.358,0,0,0,.687-3.38,6.3,6.3,0,0,0-.987-3.09c-.837-1.438-.923-1.845-1.009-4.592a9.938,9.938,0,0,0-.311-3.047,6.078,6.078,0,0,0-1.738-2.553c-1.448-1.341-2.307-1.588-5.418-1.577A14.143,14.143,0,0,0,62.87-286.742Z"/>
    <path id="Trazado_178" data-name="Trazado 178" d="M164.186-114.857c-.225.225-.139.494.268.955a2.88,2.88,0,0,0,2.049.955,4.109,4.109,0,0,1,1.684.44.428.428,0,0,0,.268.1c.29,0,1.148.976,1.47,1.663.279.612.3.751.354,2.564.043,1.674.075,1.931.247,2.038a.306.306,0,0,0,.376,0c.161-.107.182-.343.215-2.06a6.521,6.521,0,0,0-.193-2.564,4.066,4.066,0,0,0-1.5-2.049,4.969,4.969,0,0,0-2.607-1.03c-1.084-.161-1.5-.354-1.835-.869A.526.526,0,0,0,164.186-114.857Z" transform="translate(-96.327 -153.474)"/>
  </g>
</svg>
