<svg xmlns="http://www.w3.org/2000/svg" width="23.414" height="24.681" viewBox="0 0 23.414 24.681">
  <g id="Group_557" data-name="Group 557" transform="translate(-231.392 -30.746)">
    <g id="Group_551" data-name="Group 551" transform="translate(246.633 30.746)">
      <g id="plus">
        <path id="Path_8" data-name="Path 8" d="M7.764,13.442H.409a.421.421,0,0,1,0-.842H7.764a.421.421,0,0,1,0,.842Zm0,0" transform="translate(0 -8.813)" fill="#a3a3a3"/>
        <path id="Path_9" data-name="Path 9" d="M13.009,8.415a.415.415,0,0,1-.409-.421V.421a.409.409,0,1,1,.817,0V7.995A.415.415,0,0,1,13.009,8.415Zm0,0" transform="translate(-8.922 0)" fill="#a3a3a3"/>
      </g>
    </g>
    <g id="Screenshot-at-Nov-15-01-50-25" transform="translate(231.392 37.976)">
      <path id="Path_151" data-name="Path 151" d="M117.907-360.891a1.12,1.12,0,0,0-.349.917v.342h-.616a2.768,2.768,0,0,0-2.8,1.9c-.144.424-.144.534-.144,6.145s0,5.721.144,6.145a2.757,2.757,0,0,0,1.752,1.752c.411.137.575.144,3.36.144,3.244,0,3.148.014,3.339-.452a.47.47,0,0,0,0-.465c-.192-.465-.1-.452-3.264-.452h-2.854l-.363-.192a1.046,1.046,0,0,1-.554-.554l-.192-.363v-11.127l.192-.363a1.046,1.046,0,0,1,.554-.554,1.505,1.505,0,0,1,.9-.192h.541v.342c0,.63.281,1.026.719,1.026s.719-.4.719-1.026v-.342h3.011v.342c0,.63.281,1.026.719,1.026s.719-.4.719-1.026v-.342h3.079v.411a1.712,1.712,0,0,0,.1.609.681.681,0,0,0,1.177,0,1.712,1.712,0,0,0,.1-.609v-.411h.541a1.505,1.505,0,0,1,.9.192,1.046,1.046,0,0,1,.554.554l.192.363v2.115c0,2.272.014,2.388.349,2.566a.655.655,0,0,0,.671,0c.335-.178.349-.287.349-2.641a8.06,8.06,0,0,0-.144-2.621,2.768,2.768,0,0,0-2.8-1.9h-.616v-.411a1.711,1.711,0,0,0-.1-.609.681.681,0,0,0-1.177,0,1.711,1.711,0,0,0-.1.609v.411h-3.079v-.342c0-.63-.281-1.026-.719-1.026s-.719.4-.719,1.026v.342H119v-.342c0-.63-.281-1.026-.719-1.026A.753.753,0,0,0,117.907-360.891Z" transform="translate(-114 361)" fill="#a3a3a3"/>
      <path id="Path_152" data-name="Path 152" d="M166.815-266.891a.951.951,0,0,0-.253.342.47.47,0,0,0,0,.465.677.677,0,0,0,.623.452.677.677,0,0,0,.623-.452.47.47,0,0,0,0-.465.677.677,0,0,0-.623-.452A.753.753,0,0,0,166.815-266.891Z" transform="translate(-162.907 273.432)" fill="#a3a3a3"/>
      <path id="Path_153" data-name="Path 153" d="M210.546-266.775a.686.686,0,0,0,.335,1.273.724.724,0,0,0,.684-.677A.689.689,0,0,0,210.546-266.775Z" transform="translate(-203.627 273.304)" fill="#a3a3a3"/>
      <path id="Path_154" data-name="Path 154" d="M253.815-266.891a.952.952,0,0,0-.253.342.47.47,0,0,0,0,.465.677.677,0,0,0,.623.452.677.677,0,0,0,.623-.452.47.47,0,0,0,0-.465.677.677,0,0,0-.623-.452A.753.753,0,0,0,253.815-266.891Z" transform="translate(-243.954 273.432)" fill="#a3a3a3"/>
      <path id="Path_155" data-name="Path 155" d="M297.546-266.775a.686.686,0,0,0,.335,1.273.724.724,0,0,0,.684-.677A.689.689,0,0,0,297.546-266.775Z" transform="translate(-284.674 273.304)" fill="#a3a3a3"/>
      <path id="Path_156" data-name="Path 156" d="M252.216-226.571A4.22,4.22,0,0,0,249-222.533a4.189,4.189,0,0,0,3.285,4.044,3.972,3.972,0,0,0,3.729-1.163,4.136,4.136,0,0,0-1.656-6.823A4.779,4.779,0,0,0,252.216-226.571Zm2.032,1.54a2.765,2.765,0,0,1,.766,4.448,2.708,2.708,0,0,1-4.6-1.526,2.782,2.782,0,0,1,1.328-2.806A2.688,2.688,0,0,1,254.249-225.031Z" transform="translate(-239.762 235.843)" fill="#a3a3a3"/>
      <path id="Path_157" data-name="Path 157" d="M299.349-196.891c-.26.185-.349.506-.349,1.239,0,1.2.137,1.389,1.026,1.444.616.034.965-.055,1.163-.308a.693.693,0,0,0-.5-1.081c-.253-.048-.253-.055-.253-.383,0-.623-.281-1.02-.719-1.02A.753.753,0,0,0,299.349-196.891Z" transform="translate(-286.34 208.223)" fill="#a3a3a3"/>
      <path id="Path_158" data-name="Path 158" d="M167.245-223.164a.609.609,0,0,0-.445.63.6.6,0,0,0,.671.671.609.609,0,0,0,.63-.445.815.815,0,0,0-.144-.712A.815.815,0,0,0,167.245-223.164Z" transform="translate(-163.187 232.621)" fill="#a3a3a3"/>
      <path id="Path_159" data-name="Path 159" d="M210.414-223.718a.658.658,0,0,0,.014,1.245.47.47,0,0,0,.465,0,.654.654,0,0,0,0-1.245C210.626-223.827,210.674-223.827,210.414-223.718Z" transform="translate(-203.407 233.189)" fill="#a3a3a3"/>
      <path id="Path_160" data-name="Path 160" d="M166.815-179.891a.951.951,0,0,0-.253.342.47.47,0,0,0,0,.465.677.677,0,0,0,.623.452.677.677,0,0,0,.623-.452.47.47,0,0,0,0-.465.677.677,0,0,0-.623-.452A.753.753,0,0,0,166.815-179.891Z" transform="translate(-162.907 192.386)" fill="#a3a3a3"/>
      <path id="Path_161" data-name="Path 161" d="M210.546-179.775a.686.686,0,0,0,.335,1.273.724.724,0,0,0,.684-.677A.689.689,0,0,0,210.546-179.775Z" transform="translate(-203.627 192.257)" fill="#a3a3a3"/>
    </g>
  </g>
</svg>
