<svg xmlns="http://www.w3.org/2000/svg" width="16.784" height="23.987" viewBox="0 0 16.784 23.987">
  <g id="Screenshot_at_Nov_17_01-54-06" data-name="Screenshot at Nov 17 01-54-06" transform="translate(-10.875 279)">
    <path id="Trazado_201" data-name="Trazado 201" d="M15.141-278.775a17.154,17.154,0,0,0-.515,2.586l-.365,2.361-.309.244a8.743,8.743,0,0,0-2.942,4.844,10.718,10.718,0,0,0,0,3.373,8.743,8.743,0,0,0,2.942,4.844l.309.244.365,2.361a17.753,17.753,0,0,0,.515,2.567.77.77,0,0,0,.44.281c.159.028,1.855.056,3.757.056,3.664,0,4.01-.037,4.141-.44.028-.1.216-1.218.412-2.483l.365-2.3.731-.693a8.145,8.145,0,0,0,2.67-6.128,8.145,8.145,0,0,0-2.67-6.128l-.731-.693-.356-2.258c-.2-1.246-.356-2.314-.365-2.38a.652.652,0,0,0-.187-.3c-.178-.178-.309-.187-4.123-.187H15.291Zm7.093,1.2c.047.225.431,2.755.422,2.764a2.89,2.89,0,0,1-.581-.169,8.817,8.817,0,0,0-5.687.019,1.546,1.546,0,0,1-.506.15c-.028-.037.319-2.436.394-2.67a12.192,12.192,0,0,1,3-.112C20.894-277.595,22.224-277.585,22.234-277.576Zm-3.664,3.935a.728.728,0,0,0,.712.825c.4,0,.693-.356.693-.862,0-.365,0-.375.309-.309a7.226,7.226,0,0,1,4.348,2.445,8.124,8.124,0,0,1,1.565,3.476c.047.309.047.309-.337.309-.731,0-1.087.693-.618,1.19a.706.706,0,0,0,.6.215c.4,0,.4,0,.356.3a8.11,8.11,0,0,1-1.565,3.486,7.226,7.226,0,0,1-4.348,2.446c-.309.066-.309.056-.309-.309,0-.75-.684-1.134-1.19-.656a.715.715,0,0,0-.216.609v.4l-.394-.056a9.179,9.179,0,0,1-2.483-.89,10.18,10.18,0,0,1-2.455-2.455,9.755,9.755,0,0,1-.9-2.483l-.066-.394h.375c.506,0,.862-.29.862-.7s-.356-.7-.862-.7h-.375l.066-.4a9.38,9.38,0,0,1,.9-2.464,7.318,7.318,0,0,1,4.526-3.27C18.589-274.072,18.57-274.081,18.57-273.641Zm-2.174,14.5a8.789,8.789,0,0,0,5.678.019,2.888,2.888,0,0,1,.581-.169c.009.009-.365,2.492-.422,2.764-.009.009-1.349.009-2.98,0l-2.98-.028-.206-1.265c-.225-1.387-.234-1.5-.169-1.5C15.918-259.323,16.143-259.239,16.4-259.145Z"/>
    <path id="Trazado_202" data-name="Trazado 202" d="M93.206-186.844c-.2.206-.206.3-.206,2.043v1.827l.262.244a5.434,5.434,0,0,0,1.827,1.293.841.841,0,0,0,.721-.647c0-.328-.1-.469-.759-.993l-.647-.525v-1.48c0-1.359-.019-1.509-.2-1.733A.651.651,0,0,0,93.206-186.844Z" transform="translate(-74.43 -83.32)"/>
  </g>
</svg>
