<svg id="user" xmlns="http://www.w3.org/2000/svg" width="20.164" height="24.169" viewBox="0 0 20.164 24.169">
  <path id="Path_24" data-name="Path 24" d="M92.853,11.642a5.632,5.632,0,0,0,4.116-1.705,5.632,5.632,0,0,0,1.705-4.116,5.633,5.633,0,0,0-1.705-4.116,5.82,5.82,0,0,0-8.232,0,5.633,5.633,0,0,0-1.705,4.116,5.632,5.632,0,0,0,1.706,4.116A5.634,5.634,0,0,0,92.853,11.642Zm0,0" transform="translate(-82.923 0)" fill="#fe7246"/>
  <path id="Path_25" data-name="Path 25" d="M20.115,254.227a14.378,14.378,0,0,0-.2-1.527,12.032,12.032,0,0,0-.376-1.535,7.584,7.584,0,0,0-.631-1.432,5.4,5.4,0,0,0-.952-1.24,4.2,4.2,0,0,0-1.367-.859,4.725,4.725,0,0,0-1.745-.316,1.772,1.772,0,0,0-.946.4c-.284.185-.615.4-.986.635a5.648,5.648,0,0,1-1.275.562,4.952,4.952,0,0,1-3.12,0,5.634,5.634,0,0,1-1.274-.562c-.367-.234-.7-.448-.986-.636a1.769,1.769,0,0,0-.946-.4,4.719,4.719,0,0,0-1.745.316,4.193,4.193,0,0,0-1.367.859,5.4,5.4,0,0,0-.951,1.24,7.6,7.6,0,0,0-.631,1.432A12.061,12.061,0,0,0,.244,252.7a14.327,14.327,0,0,0-.2,1.528c-.032.462-.048.942-.048,1.427a4.013,4.013,0,0,0,1.192,3.036,4.291,4.291,0,0,0,3.071,1.12H15.9a4.29,4.29,0,0,0,3.071-1.12,4.011,4.011,0,0,0,1.192-3.036C20.164,255.167,20.147,254.687,20.115,254.227Zm0,0" transform="translate(0 -235.642)" fill="#fe7246"/>
</svg>
