<svg xmlns="http://www.w3.org/2000/svg" width="15.808" height="36.336" viewBox="0 0 15.808 36.336">
  <g id="embarazada" transform="translate(-8.597 259.863)">
    <path id="Trazado_173" data-name="Trazado 173" d="M17.163-259.665a2.962,2.962,0,0,1-1.032.116,3.8,3.8,0,0,0-2.516.829,1.921,1.921,0,0,0-.32,2.312,2.286,2.286,0,0,1,.029,2.167c-.262.64-.262.756-.073,1.032a.763.763,0,0,0,.509.305c.247,0,.378.32.291.785a1.347,1.347,0,0,0,.742,1.12,1.077,1.077,0,0,0,.945,0c.436-.16.553-.16.727.015.756.771-.494,2.618-2.429,3.606a3.834,3.834,0,0,0-1.832,1.541,2.369,2.369,0,0,0-.218,1.992c.116.305.087.364-.349.524a2.259,2.259,0,0,0-.873.625,1.228,1.228,0,0,0-.334,1.12c.044.611,0,.713-.553,1.294a4.005,4.005,0,0,0-1.28,2.938,5.874,5.874,0,0,0,1.222,3.548c.451.683.683,1.178.625,1.367a.638.638,0,0,0,.2.538,1.488,1.488,0,0,1,.291.843,1.423,1.423,0,0,0,.334.9l.305.334-.9,1.207c-1.149,1.556-1.658,2.589-1.527,3.083.262,1.091,3.214,1.992,6.457,1.992,2.748,0,4.13-.451,5.439-1.76a6.567,6.567,0,0,0,1.731-3.65,7.6,7.6,0,0,0-.843-4.624A15.354,15.354,0,0,1,20.2-237.3c-.073-.494.044-.989.6-2.661a6.644,6.644,0,0,1,1.4-2.879c1.6-1.818,2.2-3.127,2.21-4.828a5.408,5.408,0,0,0-.989-3.316,4.892,4.892,0,0,1-1.163-3.577,5.563,5.563,0,0,0-.509-2.763,4.528,4.528,0,0,0-1.76-2.356A5.288,5.288,0,0,0,17.163-259.665Zm2.894,1.163a5.574,5.574,0,0,1,.887,1.469,6,6,0,0,1,.436,2.6A5.412,5.412,0,0,0,22.6-250.6a4.982,4.982,0,0,1-.145,6.079l-.48.713-.131-.654c-.058-.364-.145-.814-.189-1a6.885,6.885,0,0,0-1.207-1.454c-1.352-1.323-1.571-1.847-1.745-4.086a10.8,10.8,0,0,0-.436-2.4,5.759,5.759,0,0,1-.305-1.469c0-.654-.262-.989-.64-.843-.175.073-.233.291-.233.989v.887l-.436-.756c-.407-.713-1.294-1.5-1.687-1.5a2.61,2.61,0,0,1-1.076-1.251c0-.727.829-1.251,2.109-1.309a13.4,13.4,0,0,0,1.8-.247C19.01-259.156,19.489-259.068,20.057-258.5Zm-4.435,3.941a3.487,3.487,0,0,1,.48.96.8.8,0,0,0,1.105.64c.233-.087.305.015.451.553a6.865,6.865,0,0,1,.16,1.338,11.83,11.83,0,0,0,.16,1.614c.116.7.116.974-.015,1.134a5.161,5.161,0,0,1-1.818.873l-.436.087.6-.625a12.987,12.987,0,0,0,.931-1.12,2.077,2.077,0,0,0-.582-2.85.786.786,0,0,0-.945.015c-.494.233-.829.175-.785-.131.1-.887-.131-1.571-.6-1.731-.1-.029-.087-.291.029-.8l.175-.742.393.2A2.4,2.4,0,0,1,15.621-254.56Zm3.868,7.984c.16.16.509.451.771.654,1,.756.945,2.05-.218,5.5l-.814,2.37-3.185,3.592c-1.745,1.978-3.3,3.679-3.447,3.781-.509.364-1.033-.16-.727-.727a.885.885,0,0,0,.087-.567c-.058-.218,0-.276.334-.276a1.42,1.42,0,0,0,.785-.32,79.238,79.238,0,0,0,4.668-6.442,39.263,39.263,0,0,0,.436-4.435c.131-2.2.276-4.057.32-4.13s.218.058.393.291A6.16,6.16,0,0,0,19.489-246.577Zm-2.021.611c-.044.553-.145,2.138-.233,3.534s-.189,2.7-.233,2.894a74.572,74.572,0,0,1-4.319,6.093,1.093,1.093,0,0,1-1.571-.015,6.436,6.436,0,0,1-1.643-4.246c.175-1.149,1.527-2.836,2.08-2.6,1.207.524,2.516-.262,2.3-1.382a4.841,4.841,0,0,0-.742-1.992c-.654-.96-.436-1.76.683-2.559a1.755,1.755,0,0,1,1.338-.291,5.011,5.011,0,0,0,1.527-.175c.364-.116.713-.2.785-.218A2.149,2.149,0,0,1,17.468-245.966Zm-4.857,3.781c.873.829.189,1.556-.9.989-.509-.262-.567-.669-.145-1.091C11.942-242.665,12.117-242.65,12.611-242.185Zm7.024,6.108a15.286,15.286,0,0,0,1.047,2.036,6.575,6.575,0,0,1,1.251,4.115,4.977,4.977,0,0,1-1.309,3.781c-1.265,1.411-2.632,1.818-5.584,1.7-2.821-.1-5.075-.785-4.959-1.5.116-.64,1.658-2.69,3.228-4.275.916-.931,2.618-2.778,3.781-4.115s2.152-2.414,2.2-2.414S19.489-236.455,19.635-236.077Z" transform="translate(0)"/>
    <path id="Trazado_174" data-name="Trazado 174" d="M22.767-113.64c-.727.393-.858,1-.48,2.109.291.785.422.873,1.236.771.916-.131,1.382-.407,1.6-.931a1.069,1.069,0,0,0-.509-1.454,6.127,6.127,0,0,1-.8-.48C23.392-113.916,23.276-113.931,22.767-113.64Zm1.207,1.222c.7,0,.378.669-.378.756-.364.044-.436-.015-.553-.422-.1-.349-.087-.538.058-.713.175-.218.218-.2.393.073A.74.74,0,0,0,23.974-112.418Z" transform="translate(-11.523 -124.778)"/>
    <path id="Trazado_175" data-name="Trazado 175" d="M80.432-84.712a.609.609,0,0,0,.494.916c.393-.058.465-.494.145-.858C80.767-84.988,80.665-85,80.432-84.712Z" transform="translate(-61.306 -149.504)"/>
    <path id="Trazado_176" data-name="Trazado 176" d="M85.381-74.728a3.058,3.058,0,0,0,.145,1.134,8.161,8.161,0,0,1,.2,2.356c-.058,1.382-.058,1.382.291,1.382.494,0,.64-.654.553-2.4-.087-1.629-.364-2.53-.8-2.589A.419.419,0,0,0,85.381-74.728Z" transform="translate(-65.601 -158.106)"/>
  </g>
</svg>
