<svg xmlns="http://www.w3.org/2000/svg" width="23.292" height="24.68" viewBox="0 0 23.292 24.68">
  <g id="Group_558" data-name="Group 558" transform="translate(-274.196 -31.273)">
    <g id="Group_133" data-name="Group 133" transform="translate(274.196 34.963)">
      <circle id="Ellipse_21" data-name="Ellipse 21" cx="5.948" cy="5.948" r="5.948" transform="translate(3.305)" fill="#a3a3a3"/>
      <path id="Path_91" data-name="Path 91" d="M9.182.285c5.071,0,9.182,1.143,9.182,2.933S14.253,6.329,9.182,6.329,0,5.008,0,3.218,4.111.285,9.182.285Z" transform="translate(0 14.661)" fill="#a3a3a3"/>
    </g>
    <g id="Group_552" data-name="Group 552" transform="translate(289.637 31.273)">
      <g id="plus">
        <path id="Path_8" data-name="Path 8" d="M7.458,13.408H.392a.4.4,0,0,1,0-.808H7.458a.4.4,0,0,1,0,.808Zm0,0" transform="translate(0 -8.962)" fill="#a3a3a3"/>
        <path id="Path_9" data-name="Path 9" d="M12.992,8.083a.4.4,0,0,1-.392-.4V.4a.393.393,0,1,1,.785,0V7.679A.4.4,0,0,1,12.992,8.083Zm0,0" transform="translate(-9.067 0)" fill="#a3a3a3"/>
      </g>
    </g>
  </g>
</svg>
