<svg xmlns="http://www.w3.org/2000/svg" width="27.763" height="32.09" viewBox="0 0 27.763 32.09">
  <g id="Screenshot_at_Nov_17_01-48-12" data-name="Screenshot at Nov 17 01-48-12" transform="translate(-23.14 267)">
    <path id="Trazado_189" data-name="Trazado 189" d="M31.408-265.623a9.652,9.652,0,0,1-3.542,2.152c-1.029.428-2.112.922-2.419,1.083a5.24,5.24,0,0,0-1.911,2.192l-.348.748-.04,12.083c-.027,8.9.013,12.123.12,12.256a17.2,17.2,0,0,0,5.039.027,1.093,1.093,0,0,0,.16-.642v-.495l1.109.321a22.448,22.448,0,0,0,7.445.9,22.582,22.582,0,0,0,7.458-.9l1.1-.321v.495a1.093,1.093,0,0,0,.16.642,17.2,17.2,0,0,0,5.039-.027c.107-.134.147-3.355.12-12.256l-.04-12.083-.348-.748a5.24,5.24,0,0,0-1.911-2.192c-.307-.16-1.39-.655-2.419-1.083a9.652,9.652,0,0,1-3.542-2.152L40.978-267H33.065Zm6.843.922-1.23,1.243-1.23-1.243-1.243-1.23h4.945Zm-3.448.495c1.029,1.029,1.417,1.51,1.337,1.631-.053.107-.495.655-.976,1.23L34.3-260.3l-1.711-1.711c-1.337-1.337-1.671-1.738-1.537-1.858a23.657,23.657,0,0,1,2.219-1.791C33.306-265.663,34-265.009,34.8-264.207Zm7.057-.642c.535.441,1.056.882,1.136.976.134.12-.2.521-1.537,1.858L39.748-260.3l-.869-1.043c-.481-.575-.922-1.123-.976-1.23-.08-.12.307-.6,1.337-1.631.8-.8,1.5-1.457,1.537-1.457A8.087,8.087,0,0,1,41.86-264.848Zm-9.784,3.8a16.888,16.888,0,0,0,2.3,2.072A4.3,4.3,0,0,0,35.5-260.05a14.228,14.228,0,0,1,.949-1.069c.013,0,.04,5.667.04,12.577v12.59l-1.23-.094a29.726,29.726,0,0,1-5.627-.989l-1.1-.361-.067-9.343c-.067-8.714-.08-9.356-.307-9.49a.381.381,0,0,0-.468,0c-.214.134-.227.748-.267,9.129L27.4-238.13H24.191l.027-10.532.04-10.519.374-.762a4.365,4.365,0,0,1,.882-1.176,30.534,30.534,0,0,1,4.357-1.992A21.551,21.551,0,0,1,32.076-261.052Zm14.021-1.27c2.245.949,2.807,1.337,3.315,2.379l.374.762.04,10.519.027,10.532H46.645l-.027-8.968c-.04-8.38-.053-9-.267-9.129a.381.381,0,0,0-.468,0c-.227.134-.241.762-.281,9.5l-.027,9.356-1.176.348c-.642.187-1.617.428-2.179.548a29.9,29.9,0,0,1-4.6.454c-.04-.04-.053-5.707-.04-12.59l.04-12.537.909,1.083a4.175,4.175,0,0,0,1.136,1.083,16.888,16.888,0,0,0,2.3-2.072c1.136-1.136,2.1-2.072,2.139-2.072S45.041-262.763,46.1-262.322Zm-18.7,25.8v.535H24.191v-1.069H27.4Zm22.454,0v.535H46.645v-1.069h3.208Z" transform="translate(0)"/>
  </g>
</svg>
