<svg xmlns="http://www.w3.org/2000/svg" width="17.257" height="22.571" viewBox="0 0 17.257 22.571">
  <g id="Screenshot_at_Nov_17_01-52-45" data-name="Screenshot at Nov 17 01-52-45" transform="translate(-24.012 283)">
    <path id="Trazado_192" data-name="Trazado 192" d="M47.6-282.805c-.1.115-.576.788-1.045,1.506-.691,1.036-.85,1.346-.788,1.47.044.089,1,1.019,2.117,2.055s2.046,1.913,2.064,1.94a2.5,2.5,0,0,1-.691.213,8.634,8.634,0,0,0-1.532.567,5.29,5.29,0,0,0-1.656,1.258,5.662,5.662,0,0,0-1.213,1.559,6.84,6.84,0,0,0-.416,5.562,6.881,6.881,0,0,0,3.357,3.791,8.193,8.193,0,0,0,6.112,0,7.048,7.048,0,0,0,3.552-4.349,8.505,8.505,0,0,0-.035-3.632A6.447,6.447,0,0,0,55.63-273.8a5.29,5.29,0,0,0-1.656-1.258,8.634,8.634,0,0,0-1.532-.567,2.5,2.5,0,0,1-.691-.213c.018-.027.948-.9,2.064-1.94s2.073-1.966,2.117-2.055c.062-.124-.1-.434-.788-1.47-.469-.717-.948-1.391-1.045-1.506L53.921-283H47.774Zm2.631.549c0,.035-.8,1.488-.841,1.541a12.786,12.786,0,0,1-.841-1.523,3.575,3.575,0,0,1,.841-.053A5.324,5.324,0,0,1,50.227-282.256Zm2.923.018a8.675,8.675,0,0,1-.407.815l-.407.744-.221-.381c-.124-.213-.319-.576-.434-.815l-.213-.416h.841A3.575,3.575,0,0,1,53.15-282.238Zm-4.845,1.054a6.236,6.236,0,0,1,.416.841,2.525,2.525,0,0,1-.974.089,3.857,3.857,0,0,1-.974-.062,12.531,12.531,0,0,1,1.072-1.621A5.066,5.066,0,0,1,48.305-281.184Zm6.112.027a9.136,9.136,0,0,1,.5.841,3.9,3.9,0,0,1-.983.062c-.735,0-.974-.027-.948-.115a10.473,10.473,0,0,1,.859-1.568A6.239,6.239,0,0,1,54.417-281.158Zm-3.091.106.416.8H49.953l.425-.8a4.044,4.044,0,0,1,.478-.8A4.914,4.914,0,0,1,51.326-281.051Zm-1.745,2.834c.248.753.461,1.408.461,1.444s-.664-.558-1.5-1.329-1.506-1.426-1.506-1.47a4.435,4.435,0,0,1,1.045-.044l1.036.027Zm2.241-1.355c0,.133-.93,2.861-.974,2.861s-.974-2.728-.974-2.861a3.857,3.857,0,0,1,.974-.062A3.8,3.8,0,0,1,51.822-279.572Zm2.834.009c0,.035-.673.691-1.506,1.461s-1.506,1.391-1.506,1.373c0-.035.841-2.569.93-2.8A6.1,6.1,0,0,1,54.656-279.563Zm-2.338,4.624a5.469,5.469,0,0,1,2.826,1.639,4.855,4.855,0,0,1,1.178,1.55A5.6,5.6,0,0,1,56.959-269a6.134,6.134,0,0,1-4.65,5.97,7.724,7.724,0,0,1-2.923,0,6.134,6.134,0,0,1-4.65-5.97,5.6,5.6,0,0,1,.638-2.755,6.752,6.752,0,0,1,2.639-2.684A6.3,6.3,0,0,1,52.318-274.94Z" transform="translate(-18.244)"/>
    <path id="Trazado_193" data-name="Trazado 193" d="M28.7-214.653a8.079,8.079,0,0,0-3.8,3.906,8.64,8.64,0,0,0,.018,7.653,7.446,7.446,0,0,0,3.534,3.676,8.7,8.7,0,0,0,8.308,0A8.5,8.5,0,0,0,39.5-201.7a8.8,8.8,0,0,0,1.656-3.906,8.61,8.61,0,0,0-4.039-8.7c-.9-.558-1.284-.682-1.47-.5-.239.23-.071.452.6.8a7.778,7.778,0,0,1,3.437,3.481,6.6,6.6,0,0,1,.833,3.632,5.9,5.9,0,0,1-.239,2.108,7.82,7.82,0,0,1-3.339,4.491,8.141,8.141,0,0,1-4.34,1.24,8.141,8.141,0,0,1-4.34-1.24,7.371,7.371,0,0,1-3.233-4.358,8.255,8.255,0,0,1-.089-4.119,5.675,5.675,0,0,1,.629-1.887A7.982,7.982,0,0,1,29-214.033c.682-.354.815-.531.576-.771C29.414-214.963,29.246-214.936,28.7-214.653Z" transform="translate(0 -62.067)"/>
  </g>
</svg>
