<svg xmlns="http://www.w3.org/2000/svg" width="20.594" height="20.628" viewBox="0 0 20.594 20.628">
  <g id="Screenshot_at_Nov_17_02-02-14" data-name="Screenshot at Nov 17 02-02-14" transform="translate(-27.01 289.916)">
    <path id="Trazado_203" data-name="Trazado 203" d="M27.106-289.826a14.515,14.515,0,0,0-.016,3.255,9.7,9.7,0,0,0,8.706,8.327c.678.065.864.218.565.485a1.388,1.388,0,0,0-.388.961,1.506,1.506,0,0,0,.525,1.058l.2.129-.444.525a10.34,10.34,0,0,0-1.341,1.963,1.959,1.959,0,0,0-.275,1.171,2.139,2.139,0,0,0,.21,1.1,2.909,2.909,0,0,0,1.357,1.357,2.147,2.147,0,0,0,1.139.21,1.868,1.868,0,0,0,1.115-.226,3.022,3.022,0,0,0,1.3-1.341,2.139,2.139,0,0,0,.21-1.1c-.008-.88-.234-1.325-1.688-3.271-.267-.355-.267-.363-.121-.509a1.5,1.5,0,0,0,.218-1.882c-.323-.444-.234-.565.444-.638a9.683,9.683,0,0,0,8.7-8.319c.04-.315.081-1.155.081-1.866,0-1.413-.04-1.551-.436-1.454-.258.065-.291.218-.291,1.672a8.594,8.594,0,0,1-.977,4.45,9.035,9.035,0,0,1-6.316,4.709c-.913.17-1.316.161-1.373-.032a1.035,1.035,0,0,0-.864-.493,1.179,1.179,0,0,0-.888.476c-.1.21-.509.226-1.43.048a9.1,9.1,0,0,1-7.139-6.946,16.959,16.959,0,0,1-.145-2.084c-.04-1.365-.073-1.7-.17-1.753A.373.373,0,0,0,27.106-289.826Zm10.7,12.518a.79.79,0,0,1,.1.872.744.744,0,0,1-1.131,0,.831.831,0,0,1,.1-.864A.684.684,0,0,1,37.807-277.307Zm-.016,2.544a5.46,5.46,0,0,1,1.494,2.851,1.786,1.786,0,0,1-.695,1.446,1.453,1.453,0,0,1-1.252.493,1.739,1.739,0,0,1-1.365-.541,1.85,1.85,0,0,1-.412-2.326,9.927,9.927,0,0,1,1.785-2.383A2.325,2.325,0,0,1,37.791-274.763Z" transform="translate(0)"/>
    <path id="Trazado_204" data-name="Trazado 204" d="M138.791-92.61A3.648,3.648,0,0,0,138-91.043a1.458,1.458,0,0,0,.727,1.139,1.21,1.21,0,0,0,1.656-.363,1.262,1.262,0,0,0,.04-1.494,8.606,8.606,0,0,0-.557-.969C139.454-93.28,139.268-93.256,138.791-92.61Zm.913.848c.428.686.412,1.074-.048,1.292a.461.461,0,0,1-.565,0,.583.583,0,0,1-.331-.727,2.48,2.48,0,0,1,.614-.945C139.421-92.142,139.567-91.972,139.7-91.762Z" transform="translate(-102.026 -180.901)"/>
  </g>
</svg>
