<svg xmlns="http://www.w3.org/2000/svg" width="24.246" height="39.59" viewBox="0 0 24.246 39.59">
  <g id="Screenshot-at-Nov-17-01-22-40" transform="translate(-53.9 285.881)">
    <path id="Trazado_170" data-name="Trazado 170" d="M62.086-285.651a5.3,5.3,0,0,0-2.811,2.842,5.5,5.5,0,0,0,.2,3.666,5.136,5.136,0,0,1,.342.621,7.9,7.9,0,0,1-.963.513,9.116,9.116,0,0,0-4.442,4.722l-.419.979-.047,6.928-.047,6.943.419.326c.326.264.637.326,1.476.326h1.072v5.266c0,2.9.047,5.39.093,5.53.217.559.885.7,3.464.7,2.376,0,2.5-.016,2.9-.357.326-.3.45-.575.559-1.367.078-.544.652-4.893,1.289-9.661.621-4.784,1.18-8.714,1.212-8.76a30.872,30.872,0,0,1,3.759,3.029,8.376,8.376,0,0,1-.217.932,3.721,3.721,0,0,0,.311,2.842,1.232,1.232,0,0,0,1.631-.031c.233-.264.3-.559.3-1.413,0-.994.031-1.118.435-1.46a1.247,1.247,0,0,1,1.755,0l.435.357L75.3-254.9c.3,4.007.559,7.44.606,7.642a1.15,1.15,0,0,0,1.895.652,1.227,1.227,0,0,0,.342-1.056c0-1.413-.932-13.948-1.087-14.74a3.537,3.537,0,0,0-1.569-2.283c-.482-.249-.528-.342-.482-.854a4.654,4.654,0,0,0-.124-1.274c-.171-.606-.746-1.243-4.846-5.359l-4.644-4.675.777-.5a4.8,4.8,0,0,0,2.112-4.489A4.729,4.729,0,0,0,62.086-285.651Zm2.827,2.5a2.148,2.148,0,0,1,1.025,1.911,2.29,2.29,0,0,1-4.225,1.227,1.652,1.652,0,0,1-.311-1.351,2.159,2.159,0,0,1,1.227-1.942A2.384,2.384,0,0,1,64.913-283.15Zm2.609,11.789c2.811,2.874,5.126,5.328,5.157,5.436a.626.626,0,0,1-.621.683,52.572,52.572,0,0,1-4.877-3.728c-3.976-3.231-4.66-3.728-5.11-3.728a1.142,1.142,0,0,0-1.165,1.1c0,.482.466.979,2.128,2.283a4.567,4.567,0,0,1,1.134,1.087c0,.3-.916,7.331-1.01,7.751l-.078.357H56.23l.047-5.794c.047-5.638.062-5.794.4-6.679a6.975,6.975,0,0,1,5.561-3.976C62.35-276.579,64.726-274.234,67.522-271.361Zm-4.753,13.84c-.016.155-.28,2.237-.59,4.629l-.59,4.349H59.274l-.047-4.629-.031-4.613h1.786C62.583-257.785,62.769-257.754,62.769-257.521Z" fill="#fff"/>
  </g>
</svg>
