<svg xmlns="http://www.w3.org/2000/svg" width="26.95" height="26.95" viewBox="0 0 26.95 26.95">
  <g id="Trazado_227" data-name="Trazado 227" transform="translate(17.971 -3.905) rotate(45)" fill="#fff" stroke-linecap="round" stroke-linejoin="round">
    <path d="M 15.97464942932129 25.5677490234375 C 15.2459888458252 25.56786918640137 14.15087890625 24.70662879943848 13.09182929992676 23.87373924255371 C 11.69622898101807 22.77615928649902 10.11440944671631 21.53214836120605 8.52820873260498 21.49001884460449 L 8.364068984985352 21.48565864562988 L 8.22930908203125 21.57944869995117 L 2.509264230728149 25.5604076385498 C 2.11853814125061 25.52315139770508 1.797811508178711 25.33434867858887 1.55436909198761 24.99775886535645 C 1.145629167556763 24.4326286315918 1.036089181900024 23.55220794677734 1.28179919719696 22.80695915222168 L 6.609719276428223 6.646848678588867 C 6.920669078826904 5.703688621520996 7.825139045715332 5.369039058685303 8.505188941955566 5.369039058685303 C 9.185238838195801 5.369039058685303 10.08970928192139 5.703688621520996 10.40065956115723 6.646848678588867 L 10.40368938446045 6.656028747558594 L 10.40706920623779 6.665088653564453 L 17.03570938110352 24.42971801757812 C 16.61570358276367 25.56755828857422 16.15352058410645 25.56772041320801 15.97464942932129 25.5677490234375 Z" stroke="none"/>
    <path d="M 8.505188941955566 5.869039535522461 C 7.967339515686035 5.869039535522461 7.311698913574219 6.114498138427734 7.084568977355957 6.803409576416016 L 1.756658554077148 22.96350860595703 C 1.561878204345703 23.55427932739258 1.645299911499023 24.27029800415039 1.959508895874023 24.70473861694336 C 2.081240653991699 24.87304306030273 2.222667694091797 24.98016548156738 2.394027709960938 25.03143692016602 L 7.943689346313477 21.16905975341797 C 8.118780136108398 21.04719924926758 8.328256607055664 20.98452949523926 8.541479110717773 20.99018859863281 C 10.29333877563477 21.03671836853027 11.94440937042236 22.33514785766602 13.40110969543457 23.48073959350586 C 14.30018901824951 24.18778991699219 15.41912937164307 25.0677490234375 15.97472953796387 25.0677490234375 C 16.03343963623047 25.0677490234375 16.08148002624512 25.06140899658203 16.16535949707031 24.97932815551758 C 16.23590469360352 24.91029357910156 16.36072731018066 24.75413513183594 16.5001163482666 24.42456436157227 L 9.938619613647461 6.839878082275391 C 9.934108734130859 6.827808380126953 9.929839134216309 6.815649032592773 9.925809860229492 6.803409576416016 C 9.69866943359375 6.114498138427734 9.043028831481934 5.869039535522461 8.505188941955566 5.869039535522461 M 8.505188941955566 4.869035720825195 C 9.512181282043457 4.869035720825195 10.51917457580566 5.409454345703125 10.87551879882812 6.490289688110352 L 17.5673999786377 24.42439842224121 C 15.9764986038208 29.19004058837891 12.05896949768066 22.08396911621094 8.514928817749023 21.98983764648438 L 2.656269073486328 26.06726837158203 C 0.9924392700195312 26.06726837158203 0.3224983215332031 24.11977005004883 0.8069400787353516 22.65039825439453 L 6.134859085083008 6.490289688110352 C 6.491204261779785 5.409454345703125 7.498196601867676 4.869035720825195 8.505188941955566 4.869035720825195 Z" stroke="none" fill="#293644"/>
  </g>
</svg>
