<svg id="Group_390" data-name="Group 390" xmlns="http://www.w3.org/2000/svg" width="20.879" height="16.529" viewBox="0 0 20.879 16.529">
  <path id="path" d="M17.834,55.943h-2.61a.434.434,0,0,1-.412-.3l-.275-.825a2.172,2.172,0,0,0-2.064-1.488H8.405A2.171,2.171,0,0,0,6.343,54.82l-.275.826a.436.436,0,0,1-.413.3H3.045A3.048,3.048,0,0,0,0,58.988v7.83a3.048,3.048,0,0,0,3.045,3.045H17.834a3.048,3.048,0,0,0,3.045-3.045v-7.83A3.048,3.048,0,0,0,17.834,55.943Zm2.175,10.874a2.178,2.178,0,0,1-2.175,2.175H3.045A2.178,2.178,0,0,1,.87,66.817v-7.83a2.178,2.178,0,0,1,2.175-2.175h2.61a1.3,1.3,0,0,0,1.238-.892l.276-.826A1.3,1.3,0,0,1,8.406,54.2h4.068a1.3,1.3,0,0,1,1.238.893l.275.826a1.3,1.3,0,0,0,1.238.892h2.61a2.178,2.178,0,0,1,2.175,2.175v7.83Z" transform="translate(0 -53.333)" fill="#dc7eff"/>
  <path id="path_1" d="M133.22,160a5.22,5.22,0,1,0,5.22,5.22A5.225,5.225,0,0,0,133.22,160Zm0,9.57a4.35,4.35,0,1,1,4.35-4.35A4.355,4.355,0,0,1,133.22,169.57Z" transform="translate(-122.78 -155.65)" fill="#dc7eff"/>
  <path id="path_2" d="M174.147,202.667a3.483,3.483,0,0,0-3.48,3.48.435.435,0,1,0,.87,0,2.613,2.613,0,0,1,2.61-2.61.435.435,0,1,0,0-.87Z" transform="translate(-163.707 -196.577)" fill="#dc7eff"/>
</svg>
