<svg xmlns="http://www.w3.org/2000/svg" width="36.457" height="27.348" viewBox="0 0 36.457 27.348">
  <g id="girl-and-boy" transform="translate(-5 199.037)">
    <path id="Trazado_182" data-name="Trazado 182" d="M12.306-198.832a8.012,8.012,0,0,0-4.614,3.261,7.518,7.518,0,0,0-1.282,4.3,16.352,16.352,0,0,1-1.068,5.041A5.123,5.123,0,0,0,5-185c0,.513.612,1.111,1.965,1.908l1.182.712-.555.285a4.551,4.551,0,0,0-1.951,2.336,17.346,17.346,0,0,0-.214,3.916v3.19l.484.484.484.484H9.742c3.532,0,3.76-.043,3.631-.669-.043-.228-.242-.256-1.866-.3L9.7-172.7v-2.706c0-2.777-.085-3.261-.541-3.261-.555,0-.6.242-.6,3.162v2.82H7.72c-1.353,0-1.324.057-1.267-3.475.043-2.891.057-3.048.4-3.7A3.927,3.927,0,0,1,7.82-181c.584-.413.712-.441,2.093-.484l1.453-.057.1.413a2.794,2.794,0,0,0,2.649,2.036,2.794,2.794,0,0,0,2.649-2.036l.1-.413,1.453.057c1.381.043,1.51.071,2.093.484a3.927,3.927,0,0,1,.968,1.139c.342.655.356.812.4,3.7.057,3.532.085,3.475-1.267,3.475h-.84v-2.82c0-2.919-.043-3.162-.6-3.162-.456,0-.541.484-.541,3.261v2.72H16.763c-1.666,0-1.78.014-1.866.285-.214.669.014.712,3.589.712h3.347l.484-.484.484-.484v-3.19a17.346,17.346,0,0,0-.214-3.916,4.551,4.551,0,0,0-1.951-2.336l-.555-.285,1.182-.712c1.3-.769,1.965-1.4,1.965-1.851a14.571,14.571,0,0,0-.57-1.98,11.477,11.477,0,0,1-.726-3.375c-.214-2.592-.37-3.3-.926-4.457A7.814,7.814,0,0,0,12.306-198.832Zm2.805.94a6.9,6.9,0,0,1,5.7,7.049,14.634,14.634,0,0,0,.869,4.415,10.585,10.585,0,0,1,.413,1.381c0,.484-3.817,2.378-4.8,2.393-.456,0-.47-.028-.47-.541,0-.484.085-.627.769-1.21a5.021,5.021,0,0,0,1.253-1.623l.47-.954.043-3.176.043-3.162-.37-.242c-.342-.228-.385-.228-.94.171a11.549,11.549,0,0,1-1.851,1.2c-.043,0-.128-.228-.171-.513a1.7,1.7,0,0,0-.256-.712c-.228-.285-.8-.242-1.239.071-1.1.769-1.609.911-3.489,1-1.6.071-1.851.128-2.036.356-.157.214-.2.812-.2,2.464a7.62,7.62,0,0,0,.285,2.948,5.064,5.064,0,0,0,1.709,2.336c.5.342.555.441.57.983,0,.6-.014.612-.456.612-.968-.014-4.813-1.908-4.813-2.364,0-.1.228-.84.484-1.652a12.717,12.717,0,0,0,.8-4.187,6.931,6.931,0,0,1,6.551-7.163C14.086-198.021,14.6-197.964,15.111-197.893Zm.242,6.665c.427.313,1.481.028,2.592-.7l.47-.313-.057,2.478c-.043,2.35-.071,2.521-.427,3.19a4.165,4.165,0,0,1-3.817,2.378,4.236,4.236,0,0,1-3.817-2.364c-.342-.655-.37-.911-.427-2.749l-.057-2.008,1.68-.057a4.616,4.616,0,0,0,2.549-.47l.854-.427.1.427A1.19,1.19,0,0,0,15.353-191.228Zm-.883,8.1c.47-.043.954-.085,1.068-.114.171-.043.214.128.2.983,0,1.225-.285,1.709-1.139,2.008a1.162,1.162,0,0,1-1.082-.028c-.684-.285-.954-.726-1.054-1.766-.128-1.21-.057-1.339.612-1.154A4.75,4.75,0,0,0,14.47-183.125Z" transform="translate(0 0)"/>
    <path id="Trazado_183" data-name="Trazado 183" d="M145.85-198.706a7.488,7.488,0,0,0-5.426,7.334,4.816,4.816,0,0,1-.157,1.253,1.842,1.842,0,0,0,1.41,2.293c.541,0,.684.142.812.712a6.107,6.107,0,0,0,1.737,2.834c.655.57.755.726.755,1.182v.541h-1.2a4.189,4.189,0,0,0-3.518,1.282c-1.182,1.182-1.267,1.524-1.267,5.369,0,3.475.071,3.817.783,4.144.271.128,2.393.171,7.989.171h7.633l.484-.484c.484-.484.484-.5.484-1.752,0-1.31-.114-1.609-.6-1.609-.37,0-.541.555-.541,1.709,0,1.111-.028,1.139-1.225,1.139h-.769v-2.82c0-2.919-.043-3.162-.6-3.162-.456,0-.541.484-.541,3.261v2.72h-8.829v-2.62c0-2.734-.1-3.361-.541-3.361-.555,0-.6.242-.6,3.162v2.82h-.826c-1.381,0-1.339.114-1.282-3.5l.043-3.119.4-.684a3.944,3.944,0,0,1,.983-1.068c.527-.342.741-.385,2.065-.427,1.125-.043,1.467-.014,1.467.128a3.719,3.719,0,0,0,.3.812,2.705,2.705,0,0,0,4.956-.413l.171-.584,1.453.057c1.31.043,1.51.085,2.022.427a2.914,2.914,0,0,1,1.353,2.635c.1,1.168.228,1.453.655,1.467.385,0,.527-.441.456-1.538a4.144,4.144,0,0,0-2.321-3.7,4.156,4.156,0,0,0-2.165-.427l-1.467-.057.014-.6c0-.513.071-.627.584-1.011a5.245,5.245,0,0,0,1.78-2.663c.2-.7.3-.84.6-.911,1.3-.271,1.809-.911,1.666-2.108-.057-.4-.142-1.367-.214-2.15a6.3,6.3,0,0,0-.883-3.2,8.468,8.468,0,0,0-2.976-2.919A7.589,7.589,0,0,0,145.85-198.706Zm3.475,1.082a6.256,6.256,0,0,1,4.486,5.682c0,.484-.014.5-.427.441-.242-.028-.427-.142-.427-.271a1.543,1.543,0,0,0-.854-1.182c-.385-.157-.641-.142-1.78.114a11.371,11.371,0,0,1-5.226.014,6.384,6.384,0,0,0-1.623-.214,1.493,1.493,0,0,0-1.054,1.125c0,.285-.085.37-.427.413-.413.057-.427.057-.427-.541a6.4,6.4,0,0,1,.285-1.51,5.877,5.877,0,0,1,3.233-3.7A5.738,5.738,0,0,1,149.325-197.624Zm-4.344,5.882a10.906,10.906,0,0,0,4.956.071,8.58,8.58,0,0,1,1.823-.228c.2.071.214.4.171,2.336-.043,1.965-.085,2.321-.37,2.948a4.444,4.444,0,0,1-2.62,2.364,5.068,5.068,0,0,1-2.948-.171A4.749,4.749,0,0,1,143.628-187a19.6,19.6,0,0,1-.114-4.856C143.657-192.013,144.127-191.97,144.981-191.742Zm-2.563,2.136c0,.712-.028.783-.313.783a.924.924,0,0,1-.57-.242.763.763,0,0,1,.541-1.324C142.389-190.389,142.418-190.347,142.418-189.606Zm11.421-.541a.777.777,0,0,1-.555,1.324c-.3,0-.328-.057-.328-.783s.028-.783.313-.783A.924.924,0,0,1,153.839-190.147Zm-4.87,9.442a1.811,1.811,0,0,1-.883.6c-1.182.356-2.108-.612-2.108-2.207v-.812l1.182.085a6.385,6.385,0,0,0,1.6-.057l.427-.128.043,1.054C149.254-181.289,149.211-181.061,148.969-180.705Z" transform="translate(-114.917 -0.098)"/>
  </g>
</svg>
