<svg xmlns="http://www.w3.org/2000/svg" width="46.847" height="46.847" viewBox="0 0 46.847 46.847">
  <g id="Screenshot-at-Oct-30-00-36-35" transform="translate(-79 651)">
    <path id="Path_115" data-name="Path 115" d="M261.483-650.841a3.793,3.793,0,0,0-1.874,1.764,4.007,4.007,0,0,0,.219,3.778,14.207,14.207,0,0,0,2.412,2.631c1.924,1.854,2.133,2.033,2.452,2.033s.528-.179,2.452-2.033c2.263-2.193,2.572-2.6,2.891-3.857a3.536,3.536,0,0,0-3.1-4.475,4.589,4.589,0,0,0-1.864.528l-.379.209-.369-.209A3.705,3.705,0,0,0,261.483-650.841Zm1.924,1.5a3.916,3.916,0,0,1,.668.449.818.818,0,0,0,1.246-.01c1.1-.967,2.342-.9,3.04.16a2.585,2.585,0,0,1-.07,2.841,35.55,35.55,0,0,1-3.6,3.578c-.05,0-.857-.748-1.794-1.655-1.993-1.954-2.243-2.342-2.243-3.489a1.766,1.766,0,0,1,.3-1.2,1.627,1.627,0,0,1,1.6-.9A2.446,2.446,0,0,1,263.407-649.345Z" transform="translate(-162.269)"/>
    <path id="Path_116" data-name="Path 116" d="M89.4-554.838a9.957,9.957,0,0,0-7.6,6.289,9.2,9.2,0,0,0-.588,4.047l.05,1.565-.339.329a3.19,3.19,0,0,0-.787,3.07,2.961,2.961,0,0,0,1.984,2.043c.588.219.6.229.817.827a8.966,8.966,0,0,0,3.14,4.057l.7.488v1.116c0,.987-.02,1.126-.169,1.176-.1.03-.917.189-1.824.369a17.814,17.814,0,0,0-2.193.518,5.531,5.531,0,0,0-2.94,2.582c-.578,1.086-.648,1.625-.648,5.073,0,2.94.01,3.06.209,3.319l.2.259h23.284l.209-.229c.219-.229.219-.289.219-3.319,0-3.4-.07-3.977-.578-4.984a5.7,5.7,0,0,0-2.7-2.6,16.532,16.532,0,0,0-2.293-.578c-.967-.189-1.854-.369-1.974-.4-.219-.05-.229-.09-.229-1.176v-1.126l.7-.488a8.966,8.966,0,0,0,3.14-4.057c.219-.6.229-.608.817-.827a2.958,2.958,0,0,0,1.615-1.226,3.114,3.114,0,0,0-.349-3.808l-.389-.429.03-1.6a9.441,9.441,0,0,0-.708-4.286A9.953,9.953,0,0,0,89.4-554.838Zm3.857,1.545a8.551,8.551,0,0,1,6.04,6.15,7.553,7.553,0,0,1,.239,2.173c0,1.475-.02,1.555-.389,1.445a7.8,7.8,0,0,1-2.96-2.013,3.758,3.758,0,0,0-1.146-.877,2.215,2.215,0,0,0-.728.289,22.266,22.266,0,0,1-3.917,1.545,26.514,26.514,0,0,1-6.29,1.047l-1.425.06-.06-.229a16.506,16.506,0,0,1,.219-3.558,10.883,10.883,0,0,1,1.724-3.3,8.946,8.946,0,0,1,5.183-2.93A11.067,11.067,0,0,1,93.254-553.293Zm2.253,9.07a10.471,10.471,0,0,0,2.322,1.635l.528.269-.05,1.964a11.955,11.955,0,0,1-.209,2.562,7.371,7.371,0,0,1-7.894,5.333,7,7,0,0,1-4.326-2.183,5.5,5.5,0,0,1-1.266-1.7,7.14,7.14,0,0,1-.8-3.917l-.05-1.864h.478a34.241,34.241,0,0,0,3.847-.448,25.936,25.936,0,0,0,5.662-1.744l1.086-.488A6.022,6.022,0,0,1,95.506-544.223ZM82.349-538.96c-.12.11-.588-.329-.768-.708a1.641,1.641,0,0,1,.449-2.033l.309-.259.03,1.475C82.379-539.678,82.369-538.99,82.349-538.96Zm18.031-2.422a1.622,1.622,0,0,1,.209,1.595c-.159.409-.558.847-.767.847a6.347,6.347,0,0,1-.09-1.5c0-1.465.01-1.5.2-1.4A2.085,2.085,0,0,1,100.38-541.382ZM89.217-531.205a9.833,9.833,0,0,0,4.575-.219c.169-.06.179,0,.14,1.017a2.915,2.915,0,0,1-.867,2.4,2.887,2.887,0,0,1-4,.02,2.968,2.968,0,0,1-.877-2.422c-.04-1.017-.03-1.076.14-1.017C88.439-531.395,88.838-531.3,89.217-531.205Zm-1.864,3.249a4.682,4.682,0,0,0,1.993,1.8,2.859,2.859,0,0,0,1.714.319,2.859,2.859,0,0,0,1.714-.319,4.682,4.682,0,0,0,1.994-1.8,3.962,3.962,0,0,1,.339-.518c.03,0,.867.159,1.864.359,2.552.5,3.409.937,4.127,2.143.558.927.628,1.425.628,4.3v2.572H80.4v-2.572c0-2.871.07-3.369.628-4.3.718-1.2,1.5-1.615,3.957-2.113,1.017-.209,1.894-.379,1.964-.379S87.183-528.235,87.353-527.956Z" transform="translate(0 -86.443)"/>
    <path id="Path_117" data-name="Path 117" d="M130.919-218.821a.643.643,0,0,0-.219.518c0,.608.239.7,1.884.7,1.306,0,1.455-.02,1.635-.2a.8.8,0,0,0,.2-.5.8.8,0,0,0-.2-.5c-.179-.179-.329-.2-1.635-.2C131.338-219,131.119-218.98,130.919-218.821Z" transform="translate(-46.547 -388.94)"/>
    <path id="Path_118" data-name="Path 118" d="M341.419-514.753a11.621,11.621,0,0,0-3.289,1.136,9.663,9.663,0,0,0-4.6,5.981,15.989,15.989,0,0,0-.339,4.186c-.05,1.754-.1,4.446-.12,5.981l-.03,2.791.279.568a3.235,3.235,0,0,0,1.535,1.5,6.715,6.715,0,0,0,1.405.309l.967.11-.648.14a5.141,5.141,0,0,0-4.007,2.751c-.5.977-.578,1.615-.578,4.575v2.671l.249.239.239.249H353.2l.209-.229c.219-.229.219-.3.219-3,0-3.14-.09-3.748-.658-4.715a5.537,5.537,0,0,0-1.954-1.924,8.089,8.089,0,0,0-1.585-.538l-1.007-.219,1-.11a3.253,3.253,0,0,0,2.891-1.774l.269-.5-.03-3.788c-.05-5.8-.159-8.3-.419-9.27A9.683,9.683,0,0,0,341.419-514.753Zm3.379,1.535a7.9,7.9,0,0,1,3.568,1.934,8.076,8.076,0,0,1,2.562,4.745c.06.329.15,3.03.219,6.01l.11,5.412-.239.468c-.369.718-.787.877-2.691,1.037l-1.575.14v-.508c.01-.478.02-.508.419-.748a9.1,9.1,0,0,0,2.153-2.173,8.252,8.252,0,0,0,1.166-2.96,18.44,18.44,0,0,0,.04-4.376c-.159-.329-.558-.458-1.5-.458a22.428,22.428,0,0,1-8.542-2.043c-1.316-.618-1.405-.608-2.023.09a9.277,9.277,0,0,1-2.432,1.814c-1.007.449-.947.279-.947,2.621a8.8,8.8,0,0,0,.548,4.007,8.239,8.239,0,0,0,2.821,3.459c.518.349.528.359.5.807l-.03.449-.5-.03c-.269-.01-1.047-.08-1.714-.15-1.077-.11-1.256-.159-1.585-.409a2.044,2.044,0,0,1-.548-.688c-.169-.389-.169-.658-.09-4.794.12-5.99.169-6.878.349-7.625a11.244,11.244,0,0,1,1.635-3.259,8.593,8.593,0,0,1,5.014-2.911A10.851,10.851,0,0,1,344.8-513.219Zm-4.366,8.014a24.81,24.81,0,0,0,7.815,1.884l.947.07v1.545a6.589,6.589,0,0,1-.239,2.293,6.48,6.48,0,0,1-4.017,4.266,6.884,6.884,0,0,1-4.794-.239,6.356,6.356,0,0,1-3.07-3.08,6.522,6.522,0,0,1-.588-3.439V-503.5l.478-.239a12.019,12.019,0,0,0,2.063-1.485,3.542,3.542,0,0,1,.459-.369C339.516-505.593,339.944-505.424,340.433-505.2Zm.708,11.622a10.058,10.058,0,0,0,3.369,0c.937-.219.877-.269.827.738a2.816,2.816,0,0,1-.329,1.4,2.479,2.479,0,0,1-2.233,1.306,2.6,2.6,0,0,1-2.283-1.685,4.315,4.315,0,0,1-.02-1.9C340.522-493.732,340.821-493.662,341.14-493.582Zm-1.734,2.791a3.955,3.955,0,0,0,2.412,1.894,3.993,3.993,0,0,0,2.592-.189,4.52,4.52,0,0,0,1.794-1.625c.1-.209.2-.389.209-.409a35.464,35.464,0,0,1,3.578.738,3.591,3.591,0,0,1,2.043,2.223,8.9,8.9,0,0,1,.2,2.911v2.283H333.4v-2.143c0-2.851.14-3.439,1.027-4.406.608-.668,1.206-.917,3.01-1.286.877-.169,1.645-.329,1.7-.329S339.316-490.981,339.406-490.792Z" transform="translate(-227.782 -122.581)"/>
  </g>
</svg>
