<svg xmlns="http://www.w3.org/2000/svg" width="20.169" height="22.849" viewBox="0 0 20.169 22.849">
  <g id="Screenshot_at_Nov_17_01-58-58" data-name="Screenshot at Nov 17 01-58-58" transform="translate(-5.199 267.869)">
    <path id="Trazado_196" data-name="Trazado 196" d="M8.641-267.6a2.354,2.354,0,0,0-1.448,1.663,1.493,1.493,0,0,1-.554.751c-.527.474-.608.787-.232.84.277.045,1.368-.93,1.368-1.216A2.221,2.221,0,0,1,8.2-266.6a2,2,0,0,1,1.18-.5,1.622,1.622,0,0,1,1.323,2.485,1.827,1.827,0,0,1-1.261.733c-.34,0-.42.232-.42,1.2,0,.76-.018.858-.152.858a3.049,3.049,0,0,0-.7.25,2.812,2.812,0,0,0-.349,4.917l.456.3-1.556,4.032c-.858,2.226-1.538,4.13-1.529,4.238a26.719,26.719,0,0,0,4.372,3.218,37.39,37.39,0,0,0,4.014-3.218c0-.125-.769-2.316-2.816-8.028l-.116-.322.384-.277a2.929,2.929,0,0,0,1.073-1.582,2.836,2.836,0,0,0-2.038-3.487l-.375-.107v-1.4l.3-.072a2.279,2.279,0,0,0,1.547-2.646,2.184,2.184,0,0,0-2-1.681A2.287,2.287,0,0,0,8.641-267.6Zm1.681,6.589a2.319,2.319,0,0,1,1.162,1.368,1.645,1.645,0,0,1,0,1.27,2.223,2.223,0,0,1-4.095.349,2.526,2.526,0,0,1,0-1.976,2.786,2.786,0,0,1,1.135-1.073A2.7,2.7,0,0,1,10.322-261.011Zm1.2,8.878c.653,1.815,1.153,3.317,1.126,3.344a10.069,10.069,0,0,1-1.672-.688c-.054-.045-.885-6.258-.867-6.491C10.116-256.076,10.1-256.121,11.52-252.134Zm-1.636-.447.42,3.29-.429,1.511c-.232.831-.438,1.5-.447,1.493s-.232-.7-.5-1.529l-.465-1.493.474-3.308c.268-1.815.492-3.29.5-3.281S9.651-254.4,9.884-252.581Zm-1.582-.08c-.241,1.672-.456,3.075-.465,3.111a8.345,8.345,0,0,1-1.725.751c-.018-.018.554-1.591,1.278-3.487s1.332-3.442,1.341-3.424S8.552-254.324,8.3-252.661Zm.5,6.553a16.16,16.16,0,0,1-1.341-.93,6.175,6.175,0,0,1-1.234-1.028,8.509,8.509,0,0,1,.876-.42l.8-.349.456,1.35C8.614-246.743,8.811-246.126,8.8-246.108Zm3.04-2.3c.465.206.84.384.831.393s-.6.465-1.305,1.01-1.287,1-1.305,1,.232-.974.617-2.307c.08-.25.179-.465.224-.465S11.368-248.6,11.842-248.406Z" transform="translate(0 -0.155)"/>
    <path id="Trazado_197" data-name="Trazado 197" d="M42.7-187.359c-.393.089-.581.259-.545.483.027.17.072.188.626.161s.626-.009.822.188a1.284,1.284,0,0,1,.286.456.966.966,0,0,1-.384.921c-.25.161-.268.438-.045.554.384.206,1.082-.608,1.091-1.27a2.042,2.042,0,0,0-.429-1.073A1.544,1.544,0,0,0,42.7-187.359Z" transform="translate(-33.649 -73.28)"/>
    <path id="Trazado_198" data-name="Trazado 198" d="M140.46-267.756a2.188,2.188,0,0,0-1.4,1.582,1.464,1.464,0,0,1-.59.84c-.358.3-.483.474-.465.617.054.367.393.277,1-.25.483-.429.572-.554.617-.867a1.677,1.677,0,0,1,1.582-1.421,1.862,1.862,0,0,1,1.314.706,1.6,1.6,0,0,1-1.153,2.494l-.384.063-.045.974-.045.974-.375.107a2.848,2.848,0,0,0-2.047,3.487,3,3,0,0,0,1.216,1.672l.438.268-.179.465c-1.01,2.539-2.941,7.689-2.941,7.8a36.686,36.686,0,0,0,4.247,3.192c.17.072.456-.125,2.155-1.457a10.4,10.4,0,0,0,1.985-1.734c.009-.107-.635-2.038-1.439-4.282l-1.466-4.086.384-.268a2.833,2.833,0,0,0,.948-3.433,3,3,0,0,0-1.976-1.636l-.286-.063.027-.715.027-.715.349-.125a2.212,2.212,0,0,0,1.037-3.406A2.333,2.333,0,0,0,140.46-267.756Zm1.582,6.526a2.666,2.666,0,0,1,1.153,1.073,2.526,2.526,0,0,1,0,1.976,2.223,2.223,0,0,1-4.095-.349,1.673,1.673,0,0,1,.009-1.3,2.43,2.43,0,0,1,1.287-1.413A3.2,3.2,0,0,1,142.042-261.229Zm1.082,8.279c.626,1.743,1.207,3.379,1.3,3.639l.161.465-.724-.322-.93-.393c-.116-.045-.206-.125-.206-.179,0-.143-.706-5.784-.778-6.16-.027-.17-.027-.3,0-.268S142.5-254.694,143.124-252.951Zm-1.377.4.384,3.129-.384,1.386c-.215.76-.411,1.413-.447,1.448a6.335,6.335,0,0,1-.536-1.377l-.483-1.448.483-3.29a26.829,26.829,0,0,1,.536-3.129C141.327-255.749,141.533-254.274,141.747-252.548Zm-1.618-.179c-.25,1.672-.483,3.058-.519,3.093a9.335,9.335,0,0,1-1.672.688c-.027-.018.554-1.573,1.27-3.451s1.323-3.4,1.341-3.388S140.37-254.39,140.129-252.727Zm.045,4.98c.223.706.429,1.332.447,1.395.027.08,0,.089-.116.027a27.452,27.452,0,0,1-2.45-1.851,3.777,3.777,0,0,1,.84-.447c.456-.206.84-.376.849-.384S139.95-248.445,140.174-247.747Zm3.487-.8.867.367-.206.161c-.116.08-.7.536-1.287,1a6.375,6.375,0,0,1-1.1.778,5.5,5.5,0,0,1,.241-1c.143-.5.313-1.091.367-1.305s.134-.375.179-.375A9.466,9.466,0,0,1,143.66-248.552Z" transform="translate(-120.018)"/>
    <path id="Trazado_199" data-name="Trazado 199" d="M174.7-187.388c-.393.089-.581.259-.545.483.027.17.072.188.626.161.581-.036.617-.018.885.25a.569.569,0,0,1,.232.644.992.992,0,0,1-.322.626,1.065,1.065,0,0,0-.277.34.652.652,0,0,0,.349.358c.17,0,.563-.4.733-.742A1.5,1.5,0,0,0,174.7-187.388Z" transform="translate(-153.848 -73.251)"/>
  </g>
</svg>
