<svg xmlns="http://www.w3.org/2000/svg" width="14" height="14.887" viewBox="0 0 14 14.887">
  <g id="Group_475" data-name="Group 475" transform="translate(-63 -391.27)">
    <g id="Rectangle_353" data-name="Rectangle 353" transform="translate(63 392.156)" fill="#fff" stroke="#707070" stroke-width="0.5" opacity="0.5">
      <rect width="14" height="14" rx="1.7" stroke="none"/>
      <rect x="0.25" y="0.25" width="13.5" height="13.5" rx="1.45" fill="none"/>
    </g>
    <line id="Line_59" data-name="Line 59" y2="2.977" transform="translate(67.962 391.27)" fill="none" stroke="#b6b6b6" stroke-width="0.5"/>
    <line id="Line_60" data-name="Line 60" y2="2.977" transform="translate(71.932 391.27)" fill="none" stroke="#b6b6b6" stroke-width="0.5"/>
    <line id="Line_61" data-name="Line 61" x2="13.77" transform="translate(63 396.212)" fill="none" stroke="#b6b6b6" stroke-width="0.5"/>
    <g id="Group_474" data-name="Group 474" transform="translate(65.978 398.217)">
      <path id="Path_164" data-name="Path 164" d="M0,0H1.588V1.588H0Z" fill="#b6b6b6"/>
      <path id="Path_166" data-name="Path 166" d="M0,0H1.588V1.588H0Z" transform="translate(2.977)" fill="#b6b6b6"/>
      <path id="Path_167" data-name="Path 167" d="M0,0H1.588V1.588H0Z" transform="translate(5.955)" fill="#b6b6b6"/>
      <path id="Path_165" data-name="Path 165" d="M0,0H1.588V1.588H0Z" transform="translate(0 2.977)" fill="#b6b6b6"/>
      <path id="Path_168" data-name="Path 168" d="M0,0H1.588V1.588H0Z" transform="translate(2.977 2.977)" fill="#b6b6b6"/>
      <path id="Path_169" data-name="Path 169" d="M0,0H1.588V1.588H0Z" transform="translate(5.955 2.977)" fill="#b6b6b6"/>
    </g>
  </g>
</svg>
