<svg xmlns="http://www.w3.org/2000/svg" width="29.487" height="22.113" viewBox="0 0 29.487 22.113">
  <g id="Screenshot_at_Nov_17_01-46-42" data-name="Screenshot at Nov 17 01-46-42" transform="translate(-30.654 193)">
    <path id="Trazado_188" data-name="Trazado 188" d="M34.077-191.133c-1.814,1.02-3.363,1.907-3.416,1.973A30.333,30.333,0,0,0,33.242-184a6.527,6.527,0,0,0,.887-.212c1.1-.3,2.569-.742,2.767-.808.119-.053.159,1.4.159,7.031v7.1H53.74v-7.1c0-5.627.04-7.084.172-7.031.185.066,1.655.5,2.754.808a6.527,6.527,0,0,0,.887.212,29.974,29.974,0,0,0,2.582-5.177c-.053-.053-1.615-.94-3.456-1.96L53.329-193H48.854l-.04.358c-.026.3-.159.41-.7.622a6.669,6.669,0,0,1-2.714.265,6.669,6.669,0,0,1-2.714-.265c-.543-.212-.675-.318-.7-.622l-.04-.358-2.277.013H37.387Zm6.687.278a4.986,4.986,0,0,0,3.3,3.2,4.852,4.852,0,0,0,5.945-3.165l.278-.794,1.245-.04,1.258-.04,2.754,1.536c1.523.847,2.781,1.549,2.807,1.576a18.782,18.782,0,0,1-1.536,2.992c-.053,0-1.073-.318-2.251-.715l-2.145-.715-.026,7.362-.04,7.375h-13.9l-.04-7.375-.026-7.362-2.145.715c-1.178.4-2.2.715-2.251.715a8.528,8.528,0,0,1-.847-1.483c-.689-1.377-.728-1.483-.49-1.615.132-.079,1.377-.781,2.754-1.562l2.516-1.417,1.311.026,1.3.026Zm4.634.622a13.814,13.814,0,0,0,1.96-.172,2.336,2.336,0,0,1,.953-.066,5.033,5.033,0,0,1-1.827,1.417,4.031,4.031,0,0,1-2.172,0,5.033,5.033,0,0,1-1.827-1.417,2.4,2.4,0,0,1,.967.066A13.461,13.461,0,0,0,45.4-190.233Z" transform="translate(0)"/>
  </g>
</svg>
