<svg xmlns="http://www.w3.org/2000/svg" width="25.144" height="22.113" viewBox="0 0 25.144 22.113">
  <path id="Trazado_187" data-name="Trazado 187" d="M20.627-230.865c-.045.123-.64,20.956-.629,21.72v.258h5.32c4.153,0,5.332-.034,5.365-.135.034-.079.449-2.133.943-4.546s.909-4.411.943-4.411.46,1.987.943,4.411.909,4.467.943,4.535c.034.112,1.212.146,5.365.146h5.32v-.258c.011-.763-.584-21.6-.629-21.72C44.48-230.966,42-231,32.57-231S20.661-230.966,20.627-230.865Zm22.719,2v.9H21.795v-1.8H43.346ZM25.88-226.432a4.757,4.757,0,0,1-3.637,3.693,2.767,2.767,0,0,1-.64.112c-.022-.022,0-.954.034-2.077l.079-2.032h4.232Zm12.145,0a6.03,6.03,0,0,0,2.582,4.018,6.285,6.285,0,0,0,2.481.954c.191,0,.393.056.427.123.067.09.37,8.7.393,10.686v.528l-4.232-.022-4.243-.034L34.3-215.791,33.177-221.4H31.964l-1.122,5.612-1.134,5.612-4.243.034-4.232.022v-.528c.022-1.987.326-10.6.393-10.686.034-.067.236-.123.427-.123a6.209,6.209,0,0,0,3.626-1.953,7.116,7.116,0,0,0,1.336-2.537c.168-.876-.438-.786,5.556-.786h5.388ZM43.5-224.7c.034,1.122.056,2.054.034,2.077a2.767,2.767,0,0,1-.64-.112,4.757,4.757,0,0,1-3.637-3.693l-.067-.3h4.232Z" transform="translate(-19.999 231)"/>
</svg>
