<svg xmlns="http://www.w3.org/2000/svg" width="55" height="55" viewBox="0 0 55 55">
  <g id="Group_562" data-name="Group 562" transform="translate(-52 -448)">
    <circle id="Ellipse_8" data-name="Ellipse 8" cx="27.5" cy="27.5" r="27.5" transform="translate(52 448)" fill="#dafcff"/>
    <g id="Group_561" data-name="Group 561">
      <path id="path_3" d="M22.6,19.48H2.865A2.838,2.838,0,0,1,.03,16.645V2.835A2.838,2.838,0,0,1,2.865,0H22.6a2.838,2.838,0,0,1,2.835,2.835v13.81A2.838,2.838,0,0,1,22.6,19.48ZM2.865.847A1.991,1.991,0,0,0,.877,2.835v13.81a1.99,1.99,0,0,0,1.988,1.988H22.6a1.99,1.99,0,0,0,1.988-1.988V2.835A1.99,1.99,0,0,0,22.6.847Z" transform="translate(66.561 465.52)" fill="#5ef2fe"/>
      <path id="path_4" d="M35.571,15.082a2.541,2.541,0,1,1,2.541-2.541A2.544,2.544,0,0,1,35.571,15.082Zm0-4.235a1.694,1.694,0,1,0,1.694,1.694A1.7,1.7,0,0,0,35.571,10.847Z" transform="translate(47.536 459.755)" fill="#5ef2fe"/>
      <path id="path_5" d="M39.579,34.767H29.9a.423.423,0,0,1-.316-.7l6.588-7.411a.437.437,0,0,1,.633,0l5.3,5.965a.424.424,0,0,1,.071.451A2.836,2.836,0,0,1,39.579,34.767Zm-8.738-.847h8.738a1.988,1.988,0,0,0,1.7-.958L36.485,27.57Z" transform="translate(49.586 450.233)" fill="#5ef2fe"/>
      <path id="path_6" d="M12.922,26.983H2.864A2.838,2.838,0,0,1,.029,24.148V21.531a.424.424,0,0,1,.107-.282l7.2-8.1a.437.437,0,0,1,.633,0l8.47,9.528a.423.423,0,0,1,0,.563l-3.2,3.6A.422.422,0,0,1,12.922,26.983ZM.876,21.692v2.456a1.99,1.99,0,0,0,1.988,1.988h9.868l2.823-3.176-7.9-8.891Z" transform="translate(66.562 458.017)" fill="#5ef2fe"/>
    </g>
  </g>
</svg>
