<svg xmlns="http://www.w3.org/2000/svg" width="26.587" height="26.474" viewBox="0 0 26.587 26.474">
  <g id="Screenshot-at-Nov-17-01-24-39" transform="translate(-42.109 301.963)">
    <path id="Trazado_171" data-name="Trazado 171" d="M42.43-301.728c-.353.374-.281.727.395,1.984,2.286,4.26,5.185,7.865,7.844,9.746a13.65,13.65,0,0,0,3.636,1.766,10.715,10.715,0,0,0,4.488,0,12.8,12.8,0,0,0,1.34-.436,1.641,1.641,0,0,1,.53-.166c.1.1-.478,1.164-.81,1.5-.748.758-1.143.852-3.886.945a9.363,9.363,0,0,0-3.1.353,7.617,7.617,0,0,0-4.831,4.821,7.3,7.3,0,0,0-.312,2.5l-.042,1.683H46.451c-1.683,0-2.2-.218-2.6-1.091a5.081,5.081,0,0,1-.2-2.161c0-1.714,0-1.746.26-1.995a.694.694,0,0,1,1.06-.01c.281.239.291.3.322,1.33.031.914.073,1.1.26,1.309a.729.729,0,0,0,1.018.031c.229-.177.249-.291.281-1.226a6.915,6.915,0,0,0-.073-1.455,2.461,2.461,0,0,0-1.288-1.548,2.253,2.253,0,0,0-2.681.478c-.665.665-.738,1-.7,3.377.031,1.881.042,2.005.3,2.546a3.648,3.648,0,0,0,1.6,1.642l.519.281,11.325.031c6.234.01,11.429,0,11.554-.031.54-.125.551-.26.551-5.7a39.694,39.694,0,0,1,.114-5.112,2.978,2.978,0,0,0,.613-1.6,2.956,2.956,0,0,0-.571-1.559c-.125-.135-.156-1.143-.177-6.057l-.031-5.881-.229-.229c-.374-.384-.738-.281-1.943.519-1.008.675-1.133.738-1.642.738a4.684,4.684,0,0,0-4.208,1.922l-.291.468H58.171c-1.382,0-1.444.01-1.683.26-.26.249-.26.281-.26,2.026,0,2.161-.062,2.068,1.662,2.639.655.218,1.61.54,2.109.717l.914.312-.031.686-.031.686-.883.374a7.577,7.577,0,0,1-3.429.738,7.586,7.586,0,0,1-3.574-.862,17.218,17.218,0,0,1-5.476-4.925c-.416-.571-.821-1.091-.883-1.143a32.32,32.32,0,0,1-2.151-3.533,18.027,18.027,0,0,0-.987-1.694A.7.7,0,0,0,42.43-301.728Zm23.876,6.359v4.208H62.462v-.914c0-.769-.031-.956-.2-1.1a18.559,18.559,0,0,0-2.307-.883l-2.12-.707-.031-.842-.031-.852h1.34c1.257,0,1.351-.01,1.548-.239A2.11,2.11,0,0,0,61-297.26a3.158,3.158,0,0,1,1.184-1.247,4.24,4.24,0,0,1,1.631-.239c1.288-.052,1.3-.062,1.87-.447.312-.208.582-.384.592-.384S66.307-297.686,66.307-295.369Zm-1.787,5.943a2.492,2.492,0,0,0-.468,1.662,2.317,2.317,0,0,0,2.078,2.151l.281.062v8.52H64.862l-.031-3.688c-.031-3.636-.031-3.688-.26-3.907a.784.784,0,0,0-1.1,0c-.229.218-.229.27-.26,3.907l-.031,3.688H60.2l-.042-1.642c-.062-2.068-.229-2.566-1.164-3.512a3.771,3.771,0,0,0-2.93-1.153,8.636,8.636,0,0,0-1.423.01c-.727.135-1.029.81-.592,1.288.125.125.229.239.239.239s.655.042,1.444.083c1.361.062,1.434.073,1.86.374a2.4,2.4,0,0,1,.707.831c.239.457.27.655.312,1.995l.031,1.486H49.267v-1.33a6.26,6.26,0,0,1,.644-3.242,6.536,6.536,0,0,1,2.681-2.629,6.651,6.651,0,0,1,3.512-.592,7.548,7.548,0,0,0,3.605-.52c1.475-.717,2.255-1.839,2.691-3.875l.062-.281h1.049A3.3,3.3,0,0,1,64.52-289.426Zm2.4,1.029a.945.945,0,0,1,.218.457.834.834,0,0,1-.779.727.834.834,0,0,1-.779-.727.834.834,0,0,1,.779-.727A.633.633,0,0,1,66.92-288.4Z" transform="translate(0 0)"/>
    <path id="Trazado_172" data-name="Trazado 172" d="M238.349-255.688c-.364.395-.26.821.27,1.1a.768.768,0,0,0,1.06-.707C239.679-255.875,238.775-256.146,238.349-255.688Z" transform="translate(-175.658 -41.26)"/>
  </g>
</svg>
