<svg xmlns="http://www.w3.org/2000/svg" width="24" height="18" viewBox="0 0 24 18">
  <g id="id-card" transform="translate(0 -3)">
    <path id="Path_28" data-name="Path 28" d="M21.25,3H2.75A2.752,2.752,0,0,0,0,5.75v12.5A2.752,2.752,0,0,0,2.75,21h18.5A2.752,2.752,0,0,0,24,18.25V5.75A2.752,2.752,0,0,0,21.25,3Z" fill="#eceff1"/>
    <path id="Path_29" data-name="Path 29" d="M12,3H2.75A2.752,2.752,0,0,0,0,5.75v12.5A2.752,2.752,0,0,0,2.75,21H12Z" fill="#ced8f8"/>
    <path id="Path_30" data-name="Path 30" d="M7.5,7A2.5,2.5,0,1,1,5,9.5,2.5,2.5,0,0,1,7.5,7Z" fill="#7892ed"/>
    <path id="Path_31" data-name="Path 31" d="M12,16.25a.75.75,0,0,1-.75.75H3.75A.75.75,0,0,1,3,16.25v-.5A2.752,2.752,0,0,1,5.75,13h3.5A2.752,2.752,0,0,1,12,15.75Z" fill="#7892ed"/>
    <path id="Path_32" data-name="Path 32" d="M7.5,7a2.5,2.5,0,0,0,0,5Z" fill="#7892ed"/>
    <path id="Path_33" data-name="Path 33" d="M7.5,13H5.75A2.752,2.752,0,0,0,3,15.75v.5a.75.75,0,0,0,.75.75H7.5Z" fill="#7892ed"/>
    <g id="Group_10" data-name="Group 10">
      <path id="Path_34" data-name="Path 34" d="M20.25,17h-5.5a.75.75,0,0,1,0-1.5h5.5a.75.75,0,0,1,0,1.5Z" fill="#70727b"/>
      <path id="Path_35" data-name="Path 35" d="M20.25,13h-5.5a.75.75,0,0,1,0-1.5h5.5a.75.75,0,0,1,0,1.5Z" fill="#70727b"/>
      <path id="Path_36" data-name="Path 36" d="M20.25,9h-5.5a.75.75,0,0,1,0-1.5h5.5a.75.75,0,0,1,0,1.5Z" fill="#70727b"/>
    </g>
    <g id="Group_11" data-name="Group 11">
      <path id="Path_37" data-name="Path 37" d="M17.5,15.5H14.75a.75.75,0,0,0,0,1.5H17.5Z" fill="#70727b"/>
      <path id="Path_38" data-name="Path 38" d="M17.5,11.5H14.75a.75.75,0,0,0,0,1.5H17.5Z" fill="#70727b"/>
      <path id="Path_39" data-name="Path 39" d="M17.5,7.5H14.75a.75.75,0,0,0,0,1.5H17.5Z" fill="#70727b"/>
    </g>
  </g>
</svg>
