<svg xmlns="http://www.w3.org/2000/svg" width="8.729" height="14.778" viewBox="0 0 8.729 14.778">
  <g id="down-arrow" transform="translate(109.427) rotate(90)">
    <g id="Group_169" data-name="Group 169" transform="translate(0 100.698)">
      <path id="Path_95" data-name="Path 95" d="M14.542,101.428l-.484-.487a.81.81,0,0,0-1.143,0l-5.522,5.522-5.528-5.528a.81.81,0,0,0-1.143,0l-.484.484a.809.809,0,0,0,0,1.143l6.582,6.606a.826.826,0,0,0,.573.259h0a.826.826,0,0,0,.571-.259l6.576-6.588a.816.816,0,0,0,.236-.577A.808.808,0,0,0,14.542,101.428Z" transform="translate(0 -100.698)" fill="#651b8b"/>
    </g>
  </g>
</svg>
