<svg xmlns="http://www.w3.org/2000/svg" width="28.874" height="25.073" viewBox="0 0 28.874 25.073">
  <g id="Screenshot_at_Nov_17_01-41-32" data-name="Screenshot at Nov 17 01-41-32" transform="translate(-73.5 296.043)">
    <path id="Trazado_185" data-name="Trazado 185" d="M94.052-295.835a3.309,3.309,0,0,0-.474.373c-.068.09-1.908,3.23-4.1,6.99s-4.156,7.024-4.381,7.261c-.531.553-2.868,1.739-7.08,3.58-1.739.757-3.331,1.5-3.523,1.649a3.321,3.321,0,0,0-.678.813,2.089,2.089,0,0,0-.316,1.378,2.089,2.089,0,0,0,.316,1.378,2.949,2.949,0,0,0,1.513,1.287c.339.113,1.773.147,6.809.147,3.512.011,6.437-.034,6.5-.079s1.841-3.23,3.941-7.08c3.4-6.233,4.268-7.735,4.438-7.577.045.045.463,12.128.474,13.584,0,1.118.056,1.163,1.513,1.163.8,0,1.208-.045,1.287-.147.056-.068.553-3.546,1.1-7.7l.982-7.566-.045-2.371c-.045-2.191-.068-2.428-.327-3.105a6.4,6.4,0,0,0-4.517-4.009A7.6,7.6,0,0,0,94.052-295.835Zm1.2,1.084c.1.2.079.35-.079.644-.711,1.378-8.356,14.781-8.548,14.985a2.217,2.217,0,0,1-2.337.474c-1.163-.26-1.152-.2-.169-.711a5.175,5.175,0,0,0,2.078-1.592c.181-.26,2.055-3.467,4.189-7.125s3.918-6.73,3.986-6.809A.581.581,0,0,1,95.249-294.751Zm2.2-.113a5.342,5.342,0,0,1,3.4,2.846l.429.881.034,2.123.045,2.123H99.28c-2.021,0-2.1.011-2.676.294a2.2,2.2,0,0,0-.858.711c-.147.226-1.92,3.433-3.941,7.125l-3.67,6.719-6.166.034c-6.82.023-6.674.045-7.193-.689a2.014,2.014,0,0,1,.327-2.529c.147-.1,1.694-.8,3.433-1.57l3.162-1.389,1.66.339c2.247.463,3.038.35,3.93-.565.192-.192,2.281-3.783,4.652-7.961,3.941-6.956,4.314-7.656,4.314-8.13,0-.5.011-.519.316-.519A4.174,4.174,0,0,1,97.451-294.864Zm3.828,9.293c-.056.316-1.75,13.392-1.75,13.517a1.027,1.027,0,0,1-.5.068h-.5l-.068-1.05c-.056-.937-.407-11.778-.407-12.534v-.3h3.275Z" transform="translate(0 0)"/>
  </g>
</svg>
