<svg xmlns="http://www.w3.org/2000/svg" width="30.613" height="20.614" viewBox="0 0 30.613 20.614">
  <g id="Grupo_676" data-name="Grupo 676" transform="translate(-54.693 -729.693)">
    <g id="ecommerce-ticket_98074" transform="translate(65.779 740) rotate(-45)">
      <g id="Grupo_672" data-name="Grupo 672" transform="translate(-0.414 -0.414)">
        <g id="Grupo_669" data-name="Grupo 669">
          <path id="Trazado_242" data-name="Trazado 242" d="M4.809,13.455,3.223,11.869l.151-.151a1.086,1.086,0,0,0,.365-.918,1.448,1.448,0,0,0-1.5-1.5,1.086,1.086,0,0,0-.918.365l-.151.151L-.414,8.232,8.232-.414,9.818,1.172l-.151.151a1.086,1.086,0,0,0-.365.918,1.448,1.448,0,0,0,1.5,1.5,1.086,1.086,0,0,0,.918-.365l.151-.151,1.586,1.586Zm-.987-1.592.987.987L12.85,4.809l-.987-.987a1.476,1.476,0,0,1-1.064.345A1.883,1.883,0,0,1,8.874,2.242a1.475,1.475,0,0,1,.345-1.063L8.232.191.191,8.232l.987.987a1.476,1.476,0,0,1,1.064-.345A1.883,1.883,0,0,1,4.167,10.8,1.475,1.475,0,0,1,3.822,11.863Z" transform="translate(0.414 0.414)" fill="none" stroke="#707070" stroke-width="0.5"/>
        </g>
        <g id="Grupo_670" data-name="Grupo 670" transform="translate(5.5 3.146)">
          <rect id="Rectángulo_420" data-name="Rectángulo 420" width="1.21" height="0.428" transform="translate(0.303) rotate(45)" fill="none" stroke="#707070" stroke-width="0.5"/>
        </g>
        <g id="Grupo_671" data-name="Grupo 671" transform="translate(9.564 7.211)">
          <rect id="Rectángulo_421" data-name="Rectángulo 421" width="1.21" height="0.428" transform="translate(0.303) rotate(45)" fill="none" stroke="#707070" stroke-width="0.5"/>
        </g>
      </g>
      <g id="Grupo_673" data-name="Grupo 673" transform="translate(6.369 4.016)">
        <rect id="Rectángulo_422" data-name="Rectángulo 422" width="1.21" height="0.428" transform="translate(0.303 0) rotate(45)" fill="none" stroke="#707070" stroke-width="0.5"/>
      </g>
      <g id="Grupo_674" data-name="Grupo 674" transform="translate(7.867 5.513)">
        <rect id="Rectángulo_423" data-name="Rectángulo 423" width="1.21" height="0.428" transform="translate(0.303) rotate(45)" fill="none" stroke="#707070" stroke-width="0.5"/>
      </g>
    </g>
    <g id="ecommerce-ticket_98074-2" data-name="ecommerce-ticket_98074" transform="translate(55.779 740) rotate(-45)">
      <g id="Grupo_672-2" data-name="Grupo 672" transform="translate(-0.414 -0.414)">
        <g id="Grupo_669-2" data-name="Grupo 669">
          <path id="Trazado_242-2" data-name="Trazado 242" d="M4.809,13.455,3.223,11.869l.151-.151a1.086,1.086,0,0,0,.365-.918,1.448,1.448,0,0,0-1.5-1.5,1.086,1.086,0,0,0-.918.365l-.151.151L-.414,8.232,8.232-.414,9.818,1.172l-.151.151a1.086,1.086,0,0,0-.365.918,1.448,1.448,0,0,0,1.5,1.5,1.086,1.086,0,0,0,.918-.365l.151-.151,1.586,1.586Zm-.987-1.592.987.987L12.85,4.809l-.987-.987a1.476,1.476,0,0,1-1.064.345A1.883,1.883,0,0,1,8.874,2.242a1.475,1.475,0,0,1,.345-1.063L8.232.191.191,8.232l.987.987a1.476,1.476,0,0,1,1.064-.345A1.883,1.883,0,0,1,4.167,10.8,1.475,1.475,0,0,1,3.822,11.863Z" transform="translate(0.414 0.414)" fill="none" stroke="#707070" stroke-width="0.5"/>
        </g>
        <g id="Grupo_670-2" data-name="Grupo 670" transform="translate(5.5 3.146)">
          <rect id="Rectángulo_420-2" data-name="Rectángulo 420" width="1.21" height="0.428" transform="translate(0.303) rotate(45)" fill="none" stroke="#707070" stroke-width="0.5"/>
        </g>
        <g id="Grupo_671-2" data-name="Grupo 671" transform="translate(9.564 7.211)">
          <rect id="Rectángulo_421-2" data-name="Rectángulo 421" width="1.21" height="0.428" transform="translate(0.303) rotate(45)" fill="none" stroke="#707070" stroke-width="0.5"/>
        </g>
      </g>
      <g id="Grupo_673-2" data-name="Grupo 673" transform="translate(6.369 4.016)">
        <rect id="Rectángulo_422-2" data-name="Rectángulo 422" width="1.21" height="0.428" transform="translate(0.303 0) rotate(45)" fill="none" stroke="#707070" stroke-width="0.5"/>
      </g>
      <g id="Grupo_674-2" data-name="Grupo 674" transform="translate(7.867 5.513)">
        <rect id="Rectángulo_423-2" data-name="Rectángulo 423" width="1.21" height="0.428" transform="translate(0.303) rotate(45)" fill="none" stroke="#707070" stroke-width="0.5"/>
      </g>
    </g>
  </g>
</svg>
