<svg xmlns="http://www.w3.org/2000/svg" width="55" height="55" viewBox="0 0 55 55">
  <g id="Group_565" data-name="Group 565" transform="translate(-52 -588)">
    <g id="Group_564" data-name="Group 564">
      <circle id="Ellipse_72" data-name="Ellipse 72" cx="27.5" cy="27.5" r="27.5" transform="translate(52 588)" fill="#f9c1c1"/>
    </g>
    <g id="Group_563" data-name="Group 563">
      <path id="Path_28" data-name="Path 28" d="M21.25,3H2.75A2.752,2.752,0,0,0,0,5.75v12.5A2.752,2.752,0,0,0,2.75,21h18.5A2.752,2.752,0,0,0,24,18.25V5.75A2.752,2.752,0,0,0,21.25,3Z" transform="translate(68 604)" fill="#eceff1"/>
      <path id="Path_29" data-name="Path 29" d="M12,3H2.75A2.752,2.752,0,0,0,0,5.75v12.5A2.752,2.752,0,0,0,2.75,21H12Z" transform="translate(68 604)" fill="#ced8f8"/>
      <path id="Path_30" data-name="Path 30" d="M7.5,7A2.5,2.5,0,1,1,5,9.5,2.5,2.5,0,0,1,7.5,7Z" transform="translate(68 604)" fill="#7892ed"/>
      <path id="Path_31" data-name="Path 31" d="M12,16.25a.75.75,0,0,1-.75.75H3.75A.75.75,0,0,1,3,16.25v-.5A2.752,2.752,0,0,1,5.75,13h3.5A2.752,2.752,0,0,1,12,15.75Z" transform="translate(68 604)" fill="#7892ed"/>
      <path id="Path_33" data-name="Path 33" d="M7.5,13H5.75A2.752,2.752,0,0,0,3,15.75v.5a.75.75,0,0,0,.75.75H7.5Z" transform="translate(68 604)" fill="#7892ed"/>
      <g id="Group_10" data-name="Group 10" transform="translate(68 604)">
        <path id="Path_34" data-name="Path 34" d="M20.25,17h-5.5a.75.75,0,0,1,0-1.5h5.5a.75.75,0,0,1,0,1.5Z" fill="#70727b"/>
        <path id="Path_35" data-name="Path 35" d="M20.25,13h-5.5a.75.75,0,0,1,0-1.5h5.5a.75.75,0,0,1,0,1.5Z" fill="#70727b"/>
        <path id="Path_36" data-name="Path 36" d="M20.25,9h-5.5a.75.75,0,0,1,0-1.5h5.5a.75.75,0,0,1,0,1.5Z" fill="#70727b"/>
      </g>
    </g>
  </g>
</svg>
