<svg xmlns="http://www.w3.org/2000/svg" width="27.003" height="32.299" viewBox="0 0 27.003 32.299">
  <g id="Screenshot_at_Nov_17_01-44-19" data-name="Screenshot at Nov 17 01-44-19" transform="translate(-58 295)">
    <path id="Trazado_186" data-name="Trazado 186" d="M66.2-294.76a8.32,8.32,0,0,0-.126,1.741,3.959,3.959,0,0,1-.3,2.12,3.142,3.142,0,0,1-.492.808.6.6,0,0,0-.215.442c0,.139.353,1.779.77,3.621l.782,3.356L62.3-273.789c-2.36,4.883-4.3,8.959-4.3,9.035,0,.3.593.53,2.4.909a54.41,54.41,0,0,0,22.208,0c1.8-.379,2.4-.606,2.4-.909,0-.076-1.943-4.151-4.3-9.035l-4.315-8.883.782-3.356c.416-1.842.77-3.483.77-3.621a.6.6,0,0,0-.215-.442,3.142,3.142,0,0,1-.492-.808,3.959,3.959,0,0,1-.3-2.12,8.321,8.321,0,0,0-.126-1.741c-.126-.215-.278-.24-1.5-.24-1.3,0-1.375.013-1.666.328a2.75,2.75,0,0,1-2.132.858,2.75,2.75,0,0,1-2.132-.858C69.079-294.987,69-295,67.7-295,66.479-295,66.328-294.975,66.2-294.76Zm2.044,2.637c.038,1.653.063,1.754.429,2.423a3.214,3.214,0,0,0,5.653,0c.366-.669.391-.77.429-2.423l.05-1.741h.984v1.009a4.884,4.884,0,0,0,.644,2.839l.379.606-.757,3.319c-.429,1.817-.77,3.394-.77,3.483s1.868,4.038,4.164,8.744,4.114,8.618,4.063,8.669a19.434,19.434,0,0,1-3.558.643c-.05-.05-.391-1.123-.757-2.372s-.681-2.284-.694-2.309a1.727,1.727,0,0,0-.555.1c-.467.126-.517.177-.442.416.5,1.577,1.287,4.315,1.249,4.379a9.79,9.79,0,0,1-1.666.24c-.9.076-1.8.177-2.019.2-.353.038-.416.013-.429-.227,0-.151-.1-1.211-.215-2.36l-.215-2.082-.479-.038c-.315-.025-.492.013-.543.139a15.14,15.14,0,0,0,.126,2.044c.114,1.022.2,2.032.2,2.221v.366H69.483v-.366c0-.189.088-1.2.2-2.221a15.14,15.14,0,0,0,.126-2.044c-.05-.126-.227-.164-.543-.139l-.479.038-.215,2.082c-.114,1.148-.215,2.208-.215,2.36-.013.24-.076.265-.416.227-.227-.025-1.136-.126-2.032-.2a9.79,9.79,0,0,1-1.666-.24c-.038-.063.744-2.8,1.249-4.379.076-.24.025-.29-.442-.416a1.727,1.727,0,0,0-.555-.1c-.013.025-.328,1.06-.694,2.309s-.707,2.322-.757,2.372a19.434,19.434,0,0,1-3.558-.643c-.05-.051,1.779-3.95,4.063-8.656s4.164-8.656,4.164-8.757-.341-1.666-.77-3.483l-.757-3.319.379-.606a4.884,4.884,0,0,0,.644-2.839v-1.009H68.2Zm3.255-.58a4.336,4.336,0,0,0,1.489-.252l.656-.252v1.186c0,1.388-.151,1.842-.795,2.41a1.985,1.985,0,0,1-2.7,0c-.644-.568-.795-1.022-.795-2.41v-1.186l.669.252A4.212,4.212,0,0,0,71.5-292.7Z"/>
  </g>
</svg>
