<svg id="Logo" xmlns="http://www.w3.org/2000/svg" width="18.854" height="18.402" viewBox="0 0 18.854 18.402">
  <path id="Trazado_10" data-name="Trazado 10" d="M110.75-405.805c-.237.189-.25.218-.25.544s.02.366.223.533l.216.189,1.372.029c1.392.029,1.595.063,1.73.275.095.16,1.243,3.43,1.662,4.735.21.658.48,1.523.608,1.918s.338,1.059.473,1.483a3.682,3.682,0,0,0,1.183,1.952,4.4,4.4,0,0,0,1.933.916,15.368,15.368,0,0,0,3.169.115,15.369,15.369,0,0,0,3.169-.115,4.028,4.028,0,0,0,2.967-2.307c.142-.344.149-.429.149-2.416,0-1.97-.007-2.078-.149-2.462a3.893,3.893,0,0,0-2.541-2.267c-.405-.132-.493-.132-3.257-.155-2.568-.017-2.859-.011-3.055.08a.693.693,0,0,0-.291,1.036c.237.332.2.332,3.176.361l2.737.029.392.166a2.6,2.6,0,0,1,1.149,1c.142.258.149.338.149,2.13s-.007,1.872-.149,2.136a2.73,2.73,0,0,1-1.189,1.019c-.345.137-.378.137-3.075.155-3.007.017-3.142.006-3.744-.332-.628-.355-.723-.538-1.615-3.155-.446-1.305-1.115-3.3-1.487-4.432-.743-2.262-.872-2.519-1.426-2.9-.6-.4-.872-.452-2.527-.452h-1.446Z" transform="translate(-110.5 406)" fill="#651b8b"/>
  <path id="Trazado_11" data-name="Trazado 11" d="M224.946-157.834a1.5,1.5,0,0,0-.652,1.991c.276.641,1.194.94,2.455.774a1.422,1.422,0,0,0,1.283-2.068c-.288-.664-.73-.863-1.869-.863A4.249,4.249,0,0,0,224.946-157.834Z" transform="translate(-217.209 173.426)" fill="#651b8b"/>
  <path id="Trazado_12" data-name="Trazado 12" d="M342.818-157.768a1.313,1.313,0,0,0-.818,1.36,1.02,1.02,0,0,0,.365.973,1.385,1.385,0,0,0,1.006.442,4.387,4.387,0,0,0,1.969-.177,1.611,1.611,0,0,0,.641-1.327,1.284,1.284,0,0,0-.841-1.272A4.717,4.717,0,0,0,342.818-157.768Z" transform="translate(-328.398 173.349)" fill="#651b8b"/>
</svg>
