<svg xmlns="http://www.w3.org/2000/svg" width="51.819" height="37.202" viewBox="0 0 51.819 37.202">
  <g id="Grupo_436" data-name="Grupo 436" transform="translate(0 0)">
    <g id="Screenshot-at-Nov-11-01-34-57">
      <path id="Trazado_147" data-name="Trazado 147" d="M43.4-463.843a4.154,4.154,0,0,0-3.139,3.24c-.071.375-.091,5.629-.081,15.642l.03,15.075.223.557a4.417,4.417,0,0,0,2.551,2.41c.537.162,1.934.172,23.094.172,21.008,0,22.567-.01,23.084-.172a4.162,4.162,0,0,0,2.106-1.6c.769-1.144.729-.2.729-16.806,0-16.665.04-15.683-.749-16.837a4.251,4.251,0,0,0-1.043-1.043c-1.185-.81.7-.749-24.2-.739C53.826-463.935,43.651-463.894,43.4-463.843Zm15.4,6.6a2.511,2.511,0,0,1,.567.567c.233.344.233.364.233,4.06s0,3.716-.233,4.06a2.51,2.51,0,0,1-.567.567l-.344.233H47.782l-.344-.233a2.51,2.51,0,0,1-.567-.567c-.233-.344-.233-.364-.233-4.06s0-3.716.233-4.06a2.511,2.511,0,0,1,.567-.567l.344-.233H58.453Zm23.124-.081a4.889,4.889,0,0,1,2.177,8.15,4.87,4.87,0,0,1-8.3-3.442,4.818,4.818,0,0,1,2.47-4.252A5.229,5.229,0,0,1,81.921-457.323Zm-28.794,16.28c.638.425.8.8.8,1.792s-.162,1.367-.8,1.792c-.334.223-.415.233-2.845.233s-2.511-.01-2.845-.233c-.638-.425-.8-.8-.8-1.792s.162-1.367.8-1.792c.334-.223.415-.233,2.845-.233S52.793-441.266,53.127-441.043Zm10.529,0c.638.425.8.8.8,1.792s-.162,1.367-.8,1.792c-.334.223-.415.233-2.845.233s-2.511-.01-2.845-.233c-.638-.425-.8-.8-.8-1.792s.162-1.367.8-1.792c.334-.223.415-.233,2.845-.233S63.323-441.266,63.657-441.043Zm10.529,0c.638.425.8.8.8,1.792s-.162,1.367-.8,1.792c-.334.223-.415.233-2.845.233s-2.511-.01-2.845-.233c-.638-.425-.8-.8-.8-1.792s.162-1.367.8-1.792c.334-.223.415-.233,2.845-.233S73.852-441.266,74.186-441.043Zm10.529,0c.638.425.8.8.8,1.792s-.162,1.367-.8,1.792c-.334.223-.415.233-2.845.233s-2.511-.01-2.845-.233c-.638-.425-.8-.8-.8-1.792s.162-1.367.8-1.792c.334-.223.415-.233,2.845-.233S84.381-441.266,84.715-441.043Zm-20.725,7.168a.793.793,0,0,1,0,1.4c-.182.081-2.592.111-8.5.111H47.225l-.294-.294a.976.976,0,0,1-.294-.516.976.976,0,0,1,.294-.516l.294-.294h8.261C61.4-433.987,63.809-433.956,63.991-433.875Zm10.529,0a.786.786,0,0,1,.375.992,1.037,1.037,0,0,1-.375.4,31.771,31.771,0,0,1-4.05.111H66.664l-.294-.294a.977.977,0,0,1-.294-.516.976.976,0,0,1,.294-.516l.294-.294H70.47A31.751,31.751,0,0,1,74.52-433.875Z" transform="translate(-40.176 463.95)" fill="#2f2f31"/>
    </g>
    <g id="Grupo_430" data-name="Grupo 430" transform="translate(19.371 4.599) rotate(90)">
      <path id="Trazado_132" data-name="Trazado 132" d="M2.364,0H9.538A2.364,2.364,0,0,1,11.9,2.364v8.661a2.364,2.364,0,0,1-2.364,2.364H2.364A2.364,2.364,0,0,1,0,11.025V2.364A2.364,2.364,0,0,1,2.364,0Z" transform="translate(0.298 0.265)" fill="#f6c863"/>
      <path id="Trazado_125" data-name="Trazado 125" d="M10.017,13.918H2.479A2.482,2.482,0,0,1,0,11.439V2.479A2.482,2.482,0,0,1,2.479,0h7.538A2.482,2.482,0,0,1,12.5,2.479v8.959a2.482,2.482,0,0,1-2.479,2.479ZM2.479.661A1.82,1.82,0,0,0,.661,2.479v8.959a1.82,1.82,0,0,0,1.818,1.818h7.538a1.82,1.82,0,0,0,1.818-1.818V2.479A1.82,1.82,0,0,0,10.017.661Z" transform="translate(0 0)" fill="#eab54e"/>
      <path id="Trazado_126" data-name="Trazado 126" d="M.331,13.918A.331.331,0,0,1,0,13.587V.331a.331.331,0,1,1,.661,0V13.587A.331.331,0,0,1,.331,13.918Z" transform="translate(8.034 0)" fill="#eab54e"/>
      <path id="Trazado_127" data-name="Trazado 127" d="M4.131.661H.331A.331.331,0,0,1,.331,0h3.8a.331.331,0,1,1,0,.661Z" transform="translate(8.034 7.438)" fill="#eab54e"/>
      <path id="Trazado_128" data-name="Trazado 128" d="M.331,10.678A.331.331,0,0,1,0,10.348V.331A.331.331,0,0,1,.331,0h4.3a.331.331,0,0,1,0,.661H.661v9.686a.331.331,0,0,1-.331.331Z" transform="translate(3.736 3.24)" fill="#eab54e"/>
      <path id="Trazado_129" data-name="Trazado 129" d="M4.628.661H.331A.331.331,0,1,1,.331,0h4.3a.331.331,0,0,1,0,.661Z" transform="translate(3.736 9.951)" fill="#eab54e"/>
      <path id="Trazado_130" data-name="Trazado 130" d="M4.065.661H.331A.331.331,0,1,1,.331,0H4.066a.331.331,0,1,1,0,.661Z" transform="translate(0.001 5.752)" fill="#eab54e"/>
    </g>
    <g id="mc_symbol" transform="translate(26.568 3.853)">
      <rect id="Rect치ngulo_329" data-name="Rect치ngulo 329" width="21.426" height="15.183" fill="none"/>
      <g id="Grupo_432" data-name="Grupo 432" transform="translate(2.519 2.53)">
        <rect id="Rect치ngulo_330" data-name="Rect치ngulo 330" width="4.428" height="7.958" transform="translate(5.974 1.082)" fill="#ff5f00"/>
        <path id="Trazado_141" data-name="Trazado 141" d="M343.967,275.061a5.052,5.052,0,0,1,1.933-3.979,5.061,5.061,0,1,0,0,7.958A5.053,5.053,0,0,1,343.967,275.061Z" transform="translate(-337.711 -269.999)" fill="#eb001b"/>
        <path id="Trazado_142" data-name="Trazado 142" d="M404.147,275.061a5.061,5.061,0,0,1-8.188,3.979,5.062,5.062,0,0,0,0-7.958,5.061,5.061,0,0,1,8.188,3.979Z" transform="translate(-387.77 -270)" fill="#f79e1b"/>
        <path id="Trazado_143" data-name="Trazado 143" d="M450.148,327.107v-.163h.066v-.033h-.167v.033h.066v.163Zm.325,0v-.2h-.051l-.059.135-.059-.135h-.051v.2h.036v-.148l.055.128h.038l.055-.128v.148Z" transform="translate(-434.253 -318.91)" fill="#f79e1b"/>
      </g>
    </g>
  </g>
</svg>
