<svg xmlns="http://www.w3.org/2000/svg" width="23.855" height="23.402" viewBox="0 0 23.855 23.402">
  <g id="Grupo_498" data-name="Grupo 498" transform="translate(-354.073 -27.299)">
    <g id="Logo" transform="translate(354.073 27.299)">
      <path id="Trazado_10" data-name="Trazado 10" d="M110.816-405.73c-.3.262-.316.3-.316.755,0,.437.026.509.282.739l.274.262,1.736.04c1.761.04,2.018.087,2.189.381.12.223,1.573,4.761,2.1,6.573.265.914.607,2.114.77,2.663s.427,1.47.6,2.058a5.208,5.208,0,0,0,1.5,2.71,5.369,5.369,0,0,0,2.445,1.272,17.751,17.751,0,0,0,4.01.159,17.751,17.751,0,0,0,4.01-.159,5.206,5.206,0,0,0,3.753-3.2c.18-.477.188-.6.188-3.354,0-2.734-.009-2.885-.188-3.418a5.12,5.12,0,0,0-3.215-3.147c-.513-.183-.624-.183-4.121-.215-3.249-.024-3.617-.016-3.865.111a1.007,1.007,0,0,0-.368,1.439c.3.461.257.461,4.019.5l3.463.04.5.23a3.407,3.407,0,0,1,1.454,1.383c.18.358.188.469.188,2.957s-.009,2.6-.188,2.965a3.566,3.566,0,0,1-1.5,1.415c-.436.191-.479.191-3.89.215-3.8.024-3.976.008-4.737-.461-.8-.493-.915-.747-2.043-4.379-.564-1.812-1.411-4.578-1.881-6.152-.941-3.139-1.1-3.5-1.8-4.022-.761-.556-1.1-.628-3.2-.628h-1.83Z" transform="translate(-110.5 406)" fill="#a3a3a3"/>
      <path id="Trazado_11" data-name="Trazado 11" d="M224.946-157.834a1.5,1.5,0,0,0-.652,1.991c.276.641,1.194.94,2.455.774a1.422,1.422,0,0,0,1.283-2.068c-.288-.664-.73-.863-1.869-.863A4.249,4.249,0,0,0,224.946-157.834Z" transform="translate(-214.866 178.426)" fill="#a3a3a3"/>
      <path id="Trazado_12" data-name="Trazado 12" d="M342.818-157.768a1.313,1.313,0,0,0-.818,1.36,1.02,1.02,0,0,0,.365.973,1.385,1.385,0,0,0,1.006.442,4.387,4.387,0,0,0,1.969-.177,1.611,1.611,0,0,0,.641-1.327,1.284,1.284,0,0,0-.841-1.272A4.717,4.717,0,0,0,342.818-157.768Z" transform="translate(-323.398 178.349)" fill="#a3a3a3"/>
    </g>
  </g>
</svg>
