<svg xmlns="http://www.w3.org/2000/svg" width="20.5" height="15.451" viewBox="0 0 20.5 15.451">
  <g id="colibri" transform="translate(-130.067 396.651)">
    <path id="Trazado_229" data-name="Trazado 229" d="M136.24-396.588a8.715,8.715,0,0,0-.96.42,2.6,2.6,0,0,1-1.375.4c-.378.024-1.417.072-2.3.09a9.9,9.9,0,0,0-1.531.1,11.949,11.949,0,0,0,1.525.054c.792,0,1.633.03,1.861.06l.42.06.648.672a5.8,5.8,0,0,1,.8.984,7.916,7.916,0,0,1,.36,1.381,22.036,22.036,0,0,0,.972,3.6,5.344,5.344,0,0,0,1.3,1.339,4.29,4.29,0,0,0,1.549.558,2.711,2.711,0,0,1,1.339.5c.06.1.06.258-.006.846-.042.4-.1,1.248-.12,1.9-.042,1.218-.006,1.6.192,1.9.09.138.1.138.216.03.192-.174.222-.27.354-1.17a6.028,6.028,0,0,1,.168-.906,3.9,3.9,0,0,1,.084.96c.03,1.032.108,1.423.294,1.543.126.078.276-.048.39-.318a7.587,7.587,0,0,0,.174-1.23c.1-1.176.2-1.453.2-.54.006,1.092.156,1.669.546,2.041.168.162.174.162.294.054a1.266,1.266,0,0,0,.216-.444c.048-.186.1-.372.12-.414.018-.06.09-.03.264.108.462.366.72.222.72-.408a.758.758,0,0,1,.036-.312.956.956,0,0,1,.246.18c.174.156.318.228.318.156a3.962,3.962,0,0,0-.474-1c-.42-.7-.408-.8.042-.468.144.1.276.174.294.15a5.944,5.944,0,0,0-.468-1.621,4.045,4.045,0,0,1-.3-1.176c-.1-.972-.162-1.206-.39-1.531-.114-.168-.39-.558-.612-.87s-.552-.78-.732-1.044l-.324-.468.282-.264a.877.877,0,0,0,.282-.384c0-.15.072-.156.21,0,.186.2.45.156.816-.144a1.346,1.346,0,0,1,.552-.294c.312-.048.666-.24.69-.366a.3.3,0,0,0-.084-.222c-.15-.168-.048-.216.12-.054s.348.138.684-.072c.168-.1.192-.15.192-.384a1.239,1.239,0,0,1,.018-.264,1.788,1.788,0,0,1,.21.09c.174.09.2.09.492-.06.366-.186.414-.276.246-.486-.18-.228-.156-.276.09-.174a.93.93,0,0,0,.894-.06c.318-.18.354-.282.2-.48l-.12-.156.384.042a.859.859,0,0,0,.858-.276l.12-.132-.21-.174c-.114-.09-.2-.174-.18-.18s.168-.012.342-.024a.855.855,0,0,0,.732-.354c.168-.174.192-.228.132-.3-.2-.24-.774-.186-3.3.3-1.549.294-3.836.756-4.208.846-.1.024-.132.012-.1-.03.036-.066.252-.132,1.194-.4.408-.12.444-.216.072-.216-.15,0-.27-.024-.27-.048a1.884,1.884,0,0,1,.3-.33c.324-.306.372-.432.18-.492a3.144,3.144,0,0,0-1.2.162,11.768,11.768,0,0,0-3.445,2l-.576.516v-.654a2.828,2.828,0,0,0-.678-2.2,2.338,2.338,0,0,0-1.447-.492A3.089,3.089,0,0,0,136.24-396.588Z" fill="#fff"/>
  </g>
</svg>
