<svg xmlns="http://www.w3.org/2000/svg" width="40.462" height="36.33" viewBox="0 0 40.462 36.33">
  <g id="Grupo_430" data-name="Grupo 430" transform="translate(230.332 -168.835) rotate(90)">
    <path id="Trazado_132" data-name="Trazado 132" d="M6.872,0H27.728A6.872,6.872,0,0,1,34.6,6.872v25.18a6.872,6.872,0,0,1-6.872,6.872H6.872A6.872,6.872,0,0,1,0,32.052V6.872A6.872,6.872,0,0,1,6.872,0Z" transform="translate(169.7 190.639)" fill="#f6c863"/>
    <path id="Trazado_125" data-name="Trazado 125" d="M74.957,95.332H53.043a7.216,7.216,0,0,1-7.208-7.208V62.078a7.216,7.216,0,0,1,7.208-7.208H74.957a7.216,7.216,0,0,1,7.208,7.208V88.124a7.216,7.216,0,0,1-7.208,7.208ZM53.043,56.792a5.292,5.292,0,0,0-5.286,5.286V88.124a5.292,5.292,0,0,0,5.286,5.286H74.957a5.292,5.292,0,0,0,5.286-5.286V62.078a5.292,5.292,0,0,0-5.286-5.286Z" transform="translate(123 135)" fill="#eab54e"/>
    <path id="Trazado_126" data-name="Trazado 126" d="M70.151,95.332a.961.961,0,0,1-.961-.961V55.831a.961.961,0,1,1,1.922,0v38.54A.961.961,0,0,1,70.151,95.332Z" transform="translate(123 135)" fill="#eab54e"/>
    <path id="Trazado_127" data-name="Trazado 127" d="M81.2,78.416H70.151a.961.961,0,0,1,0-1.922H81.2a.961.961,0,0,1,0,1.922Z" transform="translate(123 135)" fill="#eab54e"/>
    <path id="Trazado_128" data-name="Trazado 128" d="M57.657,95.332a.961.961,0,0,1-.961-.961V65.249a.961.961,0,0,1,.961-.961H70.151a.961.961,0,0,1,0,1.922H58.618V94.37a.961.961,0,0,1-.961.962Z" transform="translate(123 135)" fill="#eab54e"/>
    <path id="Trazado_129" data-name="Trazado 129" d="M70.151,85.721H57.657a.961.961,0,0,1,0-1.922H70.151a.961.961,0,1,1,0,1.922Z" transform="translate(123 135)" fill="#eab54e"/>
    <path id="Trazado_130" data-name="Trazado 130" d="M57.657,73.515H46.8a.961.961,0,0,1,0-1.922H57.66a.961.961,0,0,1,0,1.922Z" transform="translate(123 135)" fill="#eab54e"/>
  </g>
</svg>
