<svg xmlns="http://www.w3.org/2000/svg" width="229.876" height="112.49" viewBox="0 0 229.876 112.49">
  <path id="Trazado_133" data-name="Trazado 133" d="M257.737-461.132a55.3,55.3,0,0,0-34.169,15.445,55.678,55.678,0,0,0-17.107,34.034c-2.245,17.107,4.221,34.977,17.107,47.234,15.131,14.458,35.336,19.082,56.08,12.931a65.546,65.546,0,0,0,16.388-8.306c1.751-1.3,8.037-7.184,14.054-13.111l10.866-10.731L331.866-372.9c12.033,11.9,14.952,14.278,21.866,17.87a52.316,52.316,0,0,0,25.593,6.151,53.379,53.379,0,0,0,31.43-9.384A57.084,57.084,0,0,0,435.9-405.053a56.586,56.586,0,0,0-17.556-40.634,54.8,54.8,0,0,0-38.793-15.58,56.062,56.062,0,0,0-33.63,11c-1.976,1.482-8.441,7.453-14.278,13.245l-10.686,10.6-10.641-10.6c-5.882-5.792-12.3-11.764-14.323-13.245A56.834,56.834,0,0,0,257.737-461.132ZM267.3-430.87a28.734,28.734,0,0,1,6.959,2.29c3.053,1.482,4.445,2.694,14.368,12.572l11,10.956-11,10.956c-9.923,9.878-11.315,11.09-14.368,12.572a26.206,26.206,0,0,1-35.381-11.943,23.8,23.8,0,0,1-2.784-11.584,23.958,23.958,0,0,1,2.694-11.449,26.157,26.157,0,0,1,13.964-13.066C257.512-431.5,261.643-431.858,267.3-430.87Zm120.286.718a26.19,26.19,0,0,1,15.445,13.515,23.8,23.8,0,0,1,2.784,11.584,24.084,24.084,0,0,1-2.784,11.629,26.23,26.23,0,0,1-31.43,13.515c-5.3-1.616-7.678-3.5-18.813-14.637l-10.506-10.506,11-10.956c9.968-9.878,11.315-11.09,14.413-12.572A27.4,27.4,0,0,1,387.586-430.151Z" transform="translate(-206.022 461.321)" fill="#484848"/>
</svg>
