<svg xmlns="http://www.w3.org/2000/svg" width="30.192" height="18.661" viewBox="0 0 30.192 18.661">
  <g id="Grupo_432" data-name="Grupo 432" transform="translate(0 0)">
    <rect id="Rectángulo_330" data-name="Rectángulo 330" width="8.164" height="14.671" transform="translate(11.014 1.995)" fill="#ff5f00"/>
    <path id="Trazado_141" data-name="Trazado 141" d="M349.244,279.33a9.314,9.314,0,0,1,3.564-7.335,9.33,9.33,0,1,0,0,14.671A9.314,9.314,0,0,1,349.244,279.33Z" transform="translate(-337.711 -269.999)" fill="#eb001b"/>
    <path id="Trazado_142" data-name="Trazado 142" d="M411.054,279.33a9.33,9.33,0,0,1-15.1,7.335,9.332,9.332,0,0,0,0-14.671,9.33,9.33,0,0,1,15.1,7.335Z" transform="translate(-380.862 -270)" fill="#f79e1b"/>
    <path id="Trazado_143" data-name="Trazado 143" d="M450.233,327.273v-.3h.121v-.061h-.308v.061h.121v.3Zm.6,0v-.362h-.095l-.109.249-.109-.249h-.095v.362h.067V327l.1.236h.069l.1-.236v.274Z" transform="translate(-420.932 -312.161)" fill="#f79e1b"/>
  </g>
</svg>
