<svg xmlns="http://www.w3.org/2000/svg" width="63.707" height="32.284" viewBox="0 0 63.707 32.284">
  <g id="oxxo-logo" transform="translate(-35.433 -35.451)">
    <path id="Trazado_144" data-name="Trazado 144" d="M35.433,40.41a3.839,3.839,0,0,1,3.821-3.856H95.31a3.84,3.84,0,0,1,3.821,3.856V64.8a3.838,3.838,0,0,1-3.821,3.854H39.254A3.837,3.837,0,0,1,35.433,64.8Z" transform="translate(0 -1.024)" fill="#fff"/>
    <path id="Trazado_145" data-name="Trazado 145" d="M36.045,39a3.531,3.531,0,0,1,3.515-3.546H96.195A3.53,3.53,0,0,1,99.708,39v.113H36.045ZM99.708,64.1v.088a3.53,3.53,0,0,1-3.513,3.546H39.56a3.531,3.531,0,0,1-3.515-3.546V64.1Z" transform="translate(-0.568)" fill="#fbb110"/>
    <path id="Trazado_146" data-name="Trazado 146" d="M80.1,120.7A8.894,8.894,0,1,0,89,111.724,8.934,8.934,0,0,0,80.1,120.7Zm-42.4,0a8.895,8.895,0,1,0,8.9-8.976,8.935,8.935,0,0,0-8.9,8.976Zm62.006,10.846H55.855a11.3,11.3,0,0,0,2.329-2.359l4.467-5.752,1.951,2.488,2.171-2.914-1.9-2.439,4.546-5.856a1.76,1.76,0,1,0-2.761-2.183l-4.018,5.177-4.085-5.245a1.76,1.76,0,1,0-2.756,2.19l4.617,5.92-5,6.432c-1.775,2.286-3.546,4.381-7.062,4.543H36.045V109.954H79.666a11.591,11.591,0,0,0-2.226,2.284l-4.465,5.751L71.023,115.5l-2.169,2.914,1.9,2.437L66.2,126.71a1.76,1.76,0,1,0,2.761,2.183l4.02-5.175,4.085,5.244a1.759,1.759,0,1,0,2.756-2.189l-4.617-5.922,5-6.43c1.631-2.1,3.259-4.043,6.242-4.467H99.708ZM83.674,120.7A5.324,5.324,0,1,1,89,126.072,5.349,5.349,0,0,1,83.674,120.7Zm-42.4,0a5.324,5.324,0,1,1,5.325,5.372,5.349,5.349,0,0,1-5.325-5.372" transform="translate(-0.568 -69.145)" fill="#e70020"/>
  </g>
</svg>
