<svg xmlns="http://www.w3.org/2000/svg" width="29.456" height="9.556" viewBox="0 0 29.456 9.556">
  <g id="Grupo_630" data-name="Grupo 630" transform="translate(-2.772 -12.722)">
    <g id="Grupo_431" data-name="Grupo 431" transform="translate(2.772 12.722)">
      <path id="Trazado_138" data-name="Trazado 138" d="M24,60.916h-2.4l1.5-9.232h2.4ZM19.57,51.684l-2.291,6.35-.271-1.367h0L16.2,52.515a1.029,1.029,0,0,0-1.14-.831H11.27l-.044.156A8.992,8.992,0,0,1,13.74,52.9l2.088,8.021h2.5l3.824-9.232Zm18.9,9.232h2.207l-1.924-9.232H36.825a1.1,1.1,0,0,0-1.11.688l-3.585,8.544h2.506l.5-1.371h3.055ZM35.83,57.65,37.093,54.2l.71,3.455ZM32.319,53.9l.343-1.982a6.937,6.937,0,0,0-2.162-.4c-1.193,0-4.025.521-4.025,3.056,0,2.385,3.324,2.415,3.324,3.667s-2.982,1.028-3.966.238l-.357,2.073a6.736,6.736,0,0,0,2.713.521c1.64,0,4.115-.849,4.115-3.161,0-2.4-3.354-2.624-3.354-3.667s2.341-.91,3.37-.343Z" transform="translate(-11.226 -51.519)" fill="#2566af"/>
    </g>
    <path id="Trazado_139" data-name="Trazado 139" d="M17.007,57.169,16.2,53.017a1.029,1.029,0,0,0-1.14-.831H11.27l-.044.156a9.312,9.312,0,0,1,3.567,1.791A7.2,7.2,0,0,1,17.007,57.169Z" transform="translate(-8.454 -39.299)" fill="#e6a540"/>
  </g>
</svg>
