<svg xmlns="http://www.w3.org/2000/svg" width="24.542" height="32.288" viewBox="0 0 24.542 32.288">
  <g id="Screenshot-at-Nov-11-01-14-54" transform="translate(-452.073 -138.076) rotate(90)">
    <path id="Trazado_134" data-name="Trazado 134" d="M153.148-476.6a21.994,21.994,0,0,0-11.134,3.659,17.418,17.418,0,0,0-3.6,3.047,1.746,1.746,0,0,0-.208,1.691,1.951,1.951,0,0,0,1.76,1.218c.549,0,.927-.2,1.615-.826a18.655,18.655,0,0,1,8.3-4.529,18.7,18.7,0,0,1,10.346.492,18.207,18.207,0,0,1,6.46,3.892c.927.839,1.23,1,1.874.959a1.812,1.812,0,0,0,1.678-1.211,1.838,1.838,0,0,0-.524-2.05,22.918,22.918,0,0,0-3.823-3.034,28.377,28.377,0,0,0-3.9-1.924,22.948,22.948,0,0,0-5.274-1.255A30.45,30.45,0,0,0,153.148-476.6Z" fill="#717172"/>
    <path id="Trazado_135" data-name="Trazado 135" d="M219.444-375.915a16.472,16.472,0,0,0-5.615,1.71,13.872,13.872,0,0,0-4.069,3.173,1.876,1.876,0,0,0,1.76,2.795,2.441,2.441,0,0,0,1.533-.833,11.676,11.676,0,0,1,8.094-3.135,11.689,11.689,0,0,1,8.169,3.211,3.2,3.2,0,0,0,.9.643,1.862,1.862,0,0,0,2.53-2.063,2.531,2.531,0,0,0-.934-1.413,15.958,15.958,0,0,0-7.431-3.836A18.248,18.248,0,0,0,219.444-375.915Z" transform="translate(-66.927 -94.284)" fill="#717172"/>
    <path id="Trazado_136" data-name="Trazado 136" d="M283.777-280.768a10.146,10.146,0,0,0-3.35.934,9,9,0,0,0-2.814,2.132,1.871,1.871,0,0,0,1.577,2.877,2.1,2.1,0,0,0,1.489-.669,6.075,6.075,0,0,1,2.511-1.375,7.312,7.312,0,0,1,2.914-.013,6.133,6.133,0,0,1,2.58,1.413,1.963,1.963,0,0,0,1.874.625,1.867,1.867,0,0,0,1.432-2.2,2.12,2.12,0,0,0-.751-1.18,9.55,9.55,0,0,0-5.842-2.561A6.362,6.362,0,0,0,283.777-280.768Z" transform="translate(-130.453 -183.437)" fill="#717172"/>
    <path id="Trazado_137" data-name="Trazado 137" d="M352.366-175.444A2.738,2.738,0,0,0,350-172.7a2.772,2.772,0,0,0,4.189,2.391,3.3,3.3,0,0,0,1.035-1.072,2.768,2.768,0,0,0-.543-3.318A2.8,2.8,0,0,0,352.366-175.444Z" transform="translate(-198.555 -282.143)" fill="#717172"/>
  </g>
</svg>
